<?xml version="1.0" encoding="UTF-8"?><svg id="Layer_1" xmlns="http://www.w3.org/2000/svg" width="4514.3984" height="2201.814" viewBox="0 0 4514.3984 2201.814"><defs><style>.cls-1{stroke:#60bb46;stroke-linecap:round;stroke-width:12px;}.cls-1,.cls-2,.cls-3{stroke-miterlimit:10;}.cls-1,.cls-3{fill:none;}.cls-4{letter-spacing:0em;}.cls-5{fill:#fff;font-size:60px;}.cls-5,.cls-6,.cls-7,.cls-8{isolation:isolate;}.cls-5,.cls-7{font-family:Manrope-ExtraLight, Manrope;font-variation-settings:'wght' 200;font-weight:200;}.cls-2{fill:#f4f4f5;stroke-width:10px;}.cls-2,.cls-3{stroke:#f4f4f5;}.cls-7,.cls-8{fill:#f5f5f6;font-size:43px;}.cls-9{letter-spacing:-.08em;}.cls-10{letter-spacing:-.06em;}.cls-11{letter-spacing:-.02em;}.cls-12{letter-spacing:-.04em;}.cls-8{font-family:MyriadPro-Regular, 'Myriad Pro';}</style></defs><line class="cls-3" x1="382.9797" y1="1817.9874" x2="4103.5132" y2="1817.9874"/><line class="cls-3" x1="382.9797" y1="1817.9874" x2="382.9797" y2="1783.2516"/><line class="cls-3" x1="538.0019" y1="1817.9874" x2="538.0019" y2="1783.2516"/><line class="cls-3" x1="693.0241" y1="1817.9874" x2="693.0241" y2="1783.2516"/><line class="cls-3" x1="848.0464" y1="1817.9874" x2="848.0464" y2="1783.2516"/><line class="cls-3" x1="1003.0686" y1="1817.9874" x2="1003.0686" y2="1783.2516"/><line class="cls-3" x1="1158.0908" y1="1817.9874" x2="1158.0908" y2="1783.2516"/><line class="cls-3" x1="1313.1132" y1="1817.9874" x2="1313.1132" y2="1783.2516"/><line class="cls-3" x1="1468.1353" y1="1817.9874" x2="1468.1353" y2="1783.2516"/><line class="cls-3" x1="1623.1575" y1="1817.9874" x2="1623.1575" y2="1783.2516"/><line class="cls-3" x1="1778.1798" y1="1817.9874" x2="1778.1798" y2="1783.2516"/><line class="cls-3" x1="1933.202" y1="1817.9874" x2="1933.202" y2="1783.2516"/><line class="cls-3" x1="2088.2241" y1="1817.9874" x2="2088.2241" y2="1783.2516"/><line class="cls-3" x1="2243.2466" y1="1817.9874" x2="2243.2466" y2="1783.2516"/><line class="cls-3" x1="2398.2688" y1="1817.9874" x2="2398.2688" y2="1783.2516"/><line class="cls-3" x1="2553.291" y1="1817.9874" x2="2553.291" y2="1783.2516"/><line class="cls-3" x1="2708.3132" y1="1817.9874" x2="2708.3132" y2="1783.2516"/><line class="cls-3" x1="2863.3354" y1="1817.9874" x2="2863.3354" y2="1783.2516"/><line class="cls-3" x1="3018.3577" y1="1817.9874" x2="3018.3577" y2="1783.2516"/><line class="cls-3" x1="3173.3799" y1="1817.9874" x2="3173.3799" y2="1783.2516"/><line class="cls-3" x1="3328.4021" y1="1817.9874" x2="3328.4021" y2="1783.2516"/><line class="cls-3" x1="3483.4243" y1="1817.9874" x2="3483.4243" y2="1783.2516"/><line class="cls-3" x1="3638.4465" y1="1817.9874" x2="3638.4465" y2="1783.2516"/><line class="cls-3" x1="3793.4688" y1="1817.9874" x2="3793.4688" y2="1783.2516"/><line class="cls-3" x1="3948.491" y1="1817.9874" x2="3948.491" y2="1783.2516"/><line class="cls-3" x1="4103.5132" y1="1817.9874" x2="4103.5132" y2="1783.2516"/><g class="cls-6"><text class="cls-7" transform="translate(298.6173 1866.8349)"><tspan x="0" y="0">0</tspan></text></g><g class="cls-6"><text class="cls-7" transform="translate(301.0685 1396.8002)"><tspan x="0" y="0">3</tspan></text></g><g class="cls-6"><text class="cls-7" transform="translate(298.1652 1017.9677)"><tspan x="0" y="0">6</tspan></text></g><g class="cls-6"><text class="cls-7" transform="translate(298.1652 664.977)"><tspan x="0" y="0">9</tspan></text></g><g class="cls-6"><text class="cls-7" transform="translate(281.8478 477.4022)"><tspan x="0" y="0">10</tspan></text></g><line class="cls-3" x1="382.9797" y1="1817.9874" x2="382.9797" y2="428.555"/><line class="cls-3" x1="382.9797" y1="1817.9874" x2="475.993" y2="1817.9874"/><line class="cls-3" x1="382.9797" y1="1390.6293" x2="475.993" y2="1390.6293"/><line class="cls-3" x1="382.9797" y1="973.2712" x2="475.993" y2="973.2712"/><line class="cls-3" x1="382.9797" y1="625.9131" x2="475.993" y2="625.9131"/><line class="cls-3" x1="382.9797" y1="428.555" x2="475.993" y2="428.555"/><g class="cls-6"><text class="cls-8" transform="translate(4161.6465 1866.8349)"><tspan x="0" y="0">0</tspan></text></g><g class="cls-6"><text class="cls-7" transform="translate(4161.6465 1519.4765)"><tspan x="0" y="0">50</tspan></text></g><g class="cls-6"><text class="cls-7" transform="translate(4161.6465 1172.1186)"><tspan x="0" y="0">100</tspan></text></g><g class="cls-6"><text class="cls-7" transform="translate(4161.6465 824.7602)"><tspan x="0" y="0">150</tspan></text></g><g class="cls-6"><text class="cls-7" transform="translate(4161.6465 477.4022)"><tspan x="0" y="0">200</tspan></text></g><line class="cls-3" x1="4103.5132" y1="1817.9874" x2="4103.5132" y2="428.555"/><line class="cls-3" x1="4103.5132" y1="1817.9874" x2="4010.5" y2="1817.9874"/><line class="cls-3" x1="4103.5132" y1="1470.6293" x2="4010.5" y2="1470.6293"/><line class="cls-3" x1="4103.5132" y1="1123.2711" x2="4010.5" y2="1123.2711"/><line class="cls-3" x1="4103.5132" y1="775.9131" x2="4010.5" y2="775.9131"/><line class="cls-3" x1="4103.5132" y1="428.555" x2="4010.5" y2="428.555"/><line class="cls-1" x1="615.513" y1="1644.3084" x2="460.4908" y2="1679.0442"/><line class="cls-1" x1="770.5352" y1="1609.5727" x2="615.513" y2="1644.3084"/><line class="cls-1" x1="925.5575" y1="1574.8368" x2="770.5352" y2="1609.5727"/><line class="cls-1" x1="1080.5797" y1="1505.3653" x2="925.5575" y2="1574.8368"/><line class="cls-1" x1="1235.6019" y1="1401.1577" x2="1080.5797" y2="1505.3653"/><line class="cls-1" x1="1390.6241" y1="1296.9503" x2="1235.6019" y2="1401.1577"/><line class="cls-1" x1="1545.6464" y1="1262.2145" x2="1390.6241" y2="1296.9503"/><line class="cls-1" x1="1700.6686" y1="1331.6861" x2="1545.6464" y2="1262.2145"/><line class="cls-1" x1="1855.6909" y1="1192.7429" x2="1700.6686" y2="1331.6861"/><line class="cls-1" x1="2010.7131" y1="1227.4787" x2="1855.6909" y2="1192.7429"/><line class="cls-1" x1="2165.7354" y1="1123.2711" x2="2010.7131" y2="1227.4787"/><line class="cls-1" x1="2320.7576" y1="1262.2145" x2="2165.7354" y2="1123.2711"/><line class="cls-1" x1="2475.7798" y1="984.328" x2="2320.7576" y2="1262.2145"/><line class="cls-1" x1="2630.802" y1="1053.7996" x2="2475.7798" y2="984.328"/><line class="cls-1" x1="2785.8242" y1="914.8564" x2="2630.802" y2="1053.7996"/><line class="cls-1" x1="2940.8464" y1="845.3847" x2="2785.8242" y2="914.8564"/><line class="cls-1" x1="3095.8687" y1="1123.2711" x2="2940.8464" y2="845.3847"/><line class="cls-1" x1="3250.8911" y1="1053.7996" x2="3095.8687" y2="1123.2711"/><line class="cls-1" x1="3405.9131" y1="984.328" x2="3250.8911" y2="1053.7996"/><line class="cls-1" x1="3560.9353" y1="775.9131" x2="3405.9131" y2="984.328"/><line class="cls-1" x1="3715.9578" y1="636.9699" x2="3560.9353" y2="775.9131"/><line class="cls-1" x1="3870.98" y1="775.9131" x2="3715.9578" y2="636.9699"/><line class="cls-1" x1="4026.0022" y1="532.7624" x2="3870.98" y2="775.9131"/><rect class="cls-2" x="457.4908" y="1676.0442" width="6" height="6"/><rect class="cls-2" x="612.513" y="1641.3084" width="6" height="6"/><rect class="cls-2" x="767.5352" y="1606.5727" width="6" height="6"/><rect class="cls-2" x="922.5575" y="1571.8368" width="6" height="6"/><rect class="cls-2" x="1077.5797" y="1502.3653" width="6" height="6"/><rect class="cls-2" x="1232.6019" y="1398.1577" width="6" height="6"/><rect class="cls-2" x="1387.6241" y="1293.9503" width="6" height="6"/><rect class="cls-2" x="1542.6464" y="1259.2145" width="6" height="6"/><rect class="cls-2" x="1697.6686" y="1328.6861" width="6" height="6"/><rect class="cls-2" x="1852.6909" y="1189.7429" width="6" height="6"/><rect class="cls-2" x="2007.7131" y="1224.4787" width="6" height="6"/><rect class="cls-2" x="2162.7354" y="1120.2711" width="6" height="6"/><rect class="cls-2" x="2317.7576" y="1259.2145" width="6" height="6"/><rect class="cls-2" x="2472.7798" y="981.328" width="6" height="6"/><rect class="cls-2" x="2627.802" y="1050.7996" width="6" height="6"/><rect class="cls-2" x="2782.8242" y="911.8564" width="6" height="6"/><rect class="cls-2" x="2937.8464" y="842.3847" width="6" height="6"/><rect class="cls-2" x="3092.8687" y="1120.2711" width="6" height="6"/><rect class="cls-2" x="3247.8911" y="1050.7996" width="6" height="6"/><rect class="cls-2" x="3402.9131" y="981.328" width="6" height="6"/><rect class="cls-2" x="3557.9353" y="772.9131" width="6" height="6"/><rect class="cls-2" x="3712.9578" y="633.9699" width="6" height="6"/><rect class="cls-2" x="3867.98" y="772.9131" width="6" height="6"/><rect class="cls-2" x="4023.0022" y="529.7624" width="6" height="6"/><g class="cls-6"><text class="cls-7" transform="translate(4026.002 1861.3588) rotate(90)"><tspan x="0" y="0">jul. 25</tspan></text></g><g class="cls-6"><text class="cls-7" transform="translate(3870.9785 1866.0678) rotate(90)"><tspan x="0" y="0">ap</tspan><tspan class="cls-9" x="48.0732" y="0">r</tspan><tspan class="cls-4" x="59.0386" y="0">. 25</tspan></text></g><g class="cls-6"><text class="cls-7" transform="translate(3715.959 1866.8734) rotate(90)"><tspan x="0" y="0">jan. 25</tspan></text></g><g class="cls-6"><text class="cls-7" transform="translate(3560.9355 1870.5922) rotate(90)"><tspan x="0" y="0">oct</tspan></text><text class="cls-7" transform="translate(3560.9355 1935.6928) rotate(90)"><tspan x="0" y="0">. </tspan></text><text class="cls-7" transform="translate(3560.9355 1955.1937) rotate(90)"><tspan x="0" y="0">2</tspan></text><text class="cls-7" transform="translate(3560.9355 1978.8432) rotate(90)"><tspan x="0" y="0">4</tspan></text></g><g class="cls-6"><text class="cls-7" transform="translate(3405.9141 1861.5307) rotate(90)"><tspan x="0" y="0">jul. </tspan></text><text class="cls-7" transform="translate(3405.9141 1924.2553) rotate(90)"><tspan x="0" y="0">2</tspan></text><text class="cls-7" transform="translate(3405.9141 1947.9057) rotate(90)"><tspan x="0" y="0">4</tspan></text></g><g class="cls-6"><text class="cls-7" transform="translate(3250.8906 1866.2387) rotate(90)"><tspan x="0" y="0">ap</tspan><tspan class="cls-9" x="48.0732" y="0">r</tspan><tspan class="cls-4" x="59.0386" y="0">. </tspan></text><text class="cls-7" transform="translate(3250.8906 1939.5473) rotate(90)"><tspan x="0" y="0">2</tspan></text><text class="cls-7" transform="translate(3250.8906 1963.1977) rotate(90)"><tspan x="0" y="0">4</tspan></text></g><g class="cls-6"><text class="cls-7" transform="translate(3095.8691 1867.0453) rotate(90)"><tspan x="0" y="0">jan. </tspan></text><text class="cls-7" transform="translate(3095.8691 1943.7416) rotate(90)"><tspan x="0" y="0">2</tspan></text><text class="cls-7" transform="translate(3095.8691 1967.391) rotate(90)"><tspan x="0" y="0">4</tspan></text></g><g class="cls-6"><text class="cls-7" transform="translate(2940.8477 1870.9477) rotate(90)"><tspan x="0" y="0">oct</tspan></text><text class="cls-7" transform="translate(2940.8477 1936.0482) rotate(90)"><tspan x="0" y="0">. 23</tspan></text></g><g class="cls-6"><text class="cls-7" transform="translate(2785.8242 1861.8852) rotate(90)"><tspan x="0" y="0">jul. 23</tspan></text></g><g class="cls-6"><text class="cls-7" transform="translate(2630.8008 1866.5937) rotate(90)"><tspan x="0" y="0">ap</tspan><tspan class="cls-9" x="48.0732" y="0">r</tspan><tspan class="cls-4" x="59.0386" y="0">. 23</tspan></text></g><g class="cls-6"><text class="cls-7" transform="translate(2475.7793 1867.3998) rotate(90)"><tspan x="0" y="0">jan. 23</tspan></text></g><g class="cls-6"><text class="cls-7" transform="translate(2320.7578 1870.5814) rotate(90)"><tspan x="0" y="0">oct</tspan></text><text class="cls-7" transform="translate(2320.7578 1935.682) rotate(90)"><tspan x="0" y="0">. 22</tspan></text></g><g class="cls-6"><text class="cls-7" transform="translate(2165.7363 1861.5199) rotate(90)"><tspan x="0" y="0">jul. 22</tspan></text></g><g class="cls-6"><text class="cls-7" transform="translate(2010.7129 1866.2279) rotate(90)"><tspan x="0" y="0">ap</tspan><tspan class="cls-9" x="48.0732" y="0">r</tspan><tspan class="cls-4" x="59.0386" y="0">. 22</tspan></text></g><g class="cls-6"><text class="cls-7" transform="translate(1855.6914 1867.0346) rotate(90)"><tspan x="0" y="0">jan. 22</tspan></text></g><g class="cls-6"><text class="cls-7" transform="translate(1700.668 1874.4516) rotate(90)"><tspan x="0" y="0">oct</tspan></text><text class="cls-7" transform="translate(1700.668 1939.5521) rotate(90)"><tspan x="0" y="0">. 21</tspan></text></g><g class="cls-6"><text class="cls-7" transform="translate(1545.6465 1865.39) rotate(90)"><tspan x="0" y="0">jul. 21</tspan></text></g><g class="cls-6"><text class="cls-7" transform="translate(1390.625 1870.098) rotate(90)"><tspan x="0" y="0">ap</tspan><tspan class="cls-9" x="48.0732" y="0">r</tspan><tspan class="cls-4" x="59.0386" y="0">. 21</tspan></text></g><g class="cls-6"><text class="cls-7" transform="translate(1235.6016 1870.9047) rotate(90)"><tspan x="0" y="0">jan. 21</tspan></text></g><g class="cls-6"><text class="cls-7" transform="translate(1080.5801 1869.7221) rotate(90)"><tspan x="0" y="0">oct</tspan></text><text class="cls-7" transform="translate(1080.5801 1934.8227) rotate(90)"><tspan x="0" y="0">. 20</tspan></text></g><g class="cls-6"><text class="cls-7" transform="translate(925.5586 1860.6605) rotate(90)"><tspan x="0" y="0">jul. 20</tspan></text></g><g class="cls-6"><text class="cls-7" transform="translate(770.5352 1865.3686) rotate(90)"><tspan x="0" y="0">ap</tspan><tspan class="cls-9" x="48.0732" y="0">r</tspan><tspan class="cls-4" x="59.0386" y="0">. 20</tspan></text></g><g class="cls-6"><text class="cls-7" transform="translate(615.5117 1866.1742) rotate(90)"><tspan x="0" y="0">jan. 20</tspan></text></g><g class="cls-6"><text class="cls-7" transform="translate(460.4902 1873.3656) rotate(90)"><tspan x="0" y="0">oct</tspan></text><text class="cls-7" transform="translate(460.4902 1938.4662) rotate(90)"><tspan x="0" y="0" xml:space="preserve"> 19</tspan></text></g><g class="cls-6"><text class="cls-5" transform="translate(371.6553 217.8041)"><tspan x="0" y="0">TRADING </tspan><tspan class="cls-11" x="252.7773" y="0">V</tspan><tspan x="286.3174" y="0">OLUME</tspan></text><text class="cls-5" transform="translate(371.6553 289.8041)"><tspan x="0" y="0">(MILLIONS OF SHAR</tspan><tspan class="cls-12" x="519.2925" y="0">E</tspan><tspan class="cls-10" x="550.4927" y="0">S</tspan><tspan x="582.2324" y="0">)</tspan></text></g><g class="cls-6"><text class="cls-5" transform="translate(3947.0671 237.473)"><tspan x="0" y="0">PRICE</tspan></text><text class="cls-5" transform="translate(3936.6873 309.473)"><tspan x="0" y="0">(</tspan></text><text class="cls-5" transform="translate(3964.407 309.473)"><tspan x="0" y="0">U</tspan></text><text class="cls-5" transform="translate(4006.1667 309.473)"><tspan x="0" y="0">S</tspan></text><text class="cls-5" transform="translate(4046.4265 309.473)"><tspan x="0" y="0">D</tspan></text><text class="cls-5" transform="translate(4085.4255 309.473)"><tspan x="0" y="0">)</tspan></text></g></svg>