<?xml version="1.0" encoding="UTF-8"?><svg id="Layer_1" xmlns="http://www.w3.org/2000/svg" width="1509.0035" height="414.9559" viewBox="0 0 1509.0035 414.9559"><defs><style>.cls-1{fill:#fff;}.cls-1,.cls-2,.cls-3,.cls-4{fill-rule:evenodd;}.cls-2{fill:#0c7e40;}.cls-3{fill:#93c13e;}.cls-4{fill:#4aac48;}</style></defs><g id="_Слой_1"><g id="_452046584"><polygon id="_452043944" class="cls-4" points="571.7924 8.9601 571.7924 291.2443 342.485 406.1364 571.7924 8.9601"/><polygon id="_452055512" class="cls-3" points="571.7924 8.9601 801.0988 406.133 571.7924 291.2443 571.7924 8.9601"/><polygon id="_452045312" class="cls-2" points="571.7924 291.2454 801.0999 406.1364 342.4827 406.1364 571.7924 291.2454"/><path id="_452055488" class="cls-1" d="M840.2832,113.8933c0-81.8806,74.4004-113.8933,146.2252-113.8933,50.8386,0,97.3043,11.6669,142.3555,35.0963l-32.9977,57.1533c-30.5695-13.6178-65.9953-26.2071-99.6425-25.7677-28.7119.3767-86.8206,6.6052-86.8206,46.2765,0,78.0307,236.938,42.4018,236.938,184.3338,0,92.4764-76.3773,117.8637-155.8636,117.8637-50.697,0-108.0003-14.8047-154.8704-33.7346l36.1379-62.5929c9.5742,3.8275,19.2358,7.2382,29.0886,10.3182,24.3482,7.6055,57.8336,16.0283,83.4065,16.0283,27.786,0,91.7701-4.4936,91.7761-43.9134.0071-83.358-235.7319-45.7699-235.7319-187.1684l-.001.0002Z"/><polygon id="_452048624" class="cls-1" points="74.1594 175.9241 138.3364 175.9241 234.7082 9.0038 313.5652 9.0038 198.9392 207.546 313.5652 406.0854 234.7082 406.0854 138.3387 239.1712 74.1594 239.1712 74.1594 406.1353 0 406.1353 0 8.9601 74.1594 8.9601 74.1594 175.9241"/><path id="_452053400" class="cls-1" d="M1235.0112,406.1421h273.9923v-63.2755h-199.8328v-103.6743h182.7393v-63.2755h-182.7393v-103.6802h199.8328V8.9598h-273.9923v397.1823Z"/></g></g></svg>