<svg width="85" height="25" viewBox="0 0 85 25" fill="none" xmlns="http://www.w3.org/2000/svg">
<g clip-path="url(#clip0_37_347)">
<path fill-rule="evenodd" clip-rule="evenodd" d="M62.6025 18.7605C59.7089 18.7605 57.9111 17.0798 57.9111 14.3727C57.9111 11.5597 59.5699 9.81186 62.2407 9.81186L62.4665 9.81058C62.8004 9.81058 63.2619 9.82114 63.892 9.90138V6.50745H65.7816V18.4553C65.7816 18.4553 63.9871 18.7605 62.6025 18.7605ZM62.5861 11.3022C60.7575 11.3022 59.8685 12.2914 59.8685 14.3259C59.8685 16.1515 60.9403 17.2854 62.6648 17.2854C62.9959 17.2854 63.3753 17.2647 63.892 17.2191V11.423C63.3748 11.3407 62.9596 11.3022 62.5861 11.3022Z" fill="white"/>
<path fill-rule="evenodd" clip-rule="evenodd" d="M36.7485 18.4881L31.6491 9.56597L31.6478 18.4881H29.8711V7.19458H32.3579L37.4573 16.0369L37.4552 7.19458H39.2547V18.4881H36.7485Z" fill="white"/>
<path fill-rule="evenodd" clip-rule="evenodd" d="M52.9891 18.6611C52.1309 18.6611 51.2351 18.5649 50.1688 18.3593L50.0555 18.3369V16.7592L50.2244 16.7963C51.1631 16.9965 51.9746 17.1695 52.7853 17.1695C53.4418 17.1695 54.9689 17.0648 54.9689 16.098C54.9689 15.2862 53.9135 15.0831 53.0653 14.9206L53.0123 14.91C52.8548 14.8788 52.7057 14.8492 52.5781 14.8171C51.3349 14.4933 50.0088 14.0078 50.0088 12.3372C50.0088 10.7084 51.2953 9.77417 53.5382 9.77417C54.6142 9.77417 55.3958 9.89065 56.0233 9.98441L56.3304 10.0304V11.5595L56.1665 11.5313C55.4561 11.3999 54.6235 11.2653 53.8213 11.2653C52.9322 11.2653 51.8731 11.4321 51.8731 12.2271C51.8731 12.8856 52.7385 13.0743 53.7408 13.2926C55.1411 13.5982 56.8791 13.9786 56.8791 15.8941C56.8791 17.6525 55.4611 18.6611 52.9891 18.6611Z" fill="white"/>
<path fill-rule="evenodd" clip-rule="evenodd" d="M71.0808 18.6611C69.1251 18.6611 67.3159 18.3167 67.3159 15.8156C67.3159 13.0942 70.1143 13.0942 71.7866 13.0942C71.9538 13.0942 72.7397 13.1301 72.9818 13.1411C72.9797 11.6144 72.959 11.2501 70.7506 11.2501C69.8751 11.2501 68.9023 11.4245 68.0441 11.5781L67.8802 11.6077V10.0996L67.9922 10.0768C68.9866 9.87337 69.9454 9.77417 70.9234 9.77417C73.0639 9.77417 74.8778 9.99073 74.8778 12.6522V18.4581L74.7472 18.4715C73.2648 18.6383 72.0869 18.6611 71.0808 18.6611ZM71.739 14.4401C70.127 14.4401 69.1281 14.6778 69.1281 15.862C69.1281 17.232 70.4033 17.3464 71.5984 17.3464C72.0461 17.3464 72.8492 17.2895 73.0947 17.2709V14.4866C72.7481 14.4735 71.8482 14.4401 71.739 14.4401Z" fill="white"/>
<path fill-rule="evenodd" clip-rule="evenodd" d="M44.5945 18.6611C42.6387 18.6611 40.8296 18.3167 40.8296 15.8156C40.8296 13.0942 43.628 13.0942 45.3003 13.0942C45.467 13.0942 46.2533 13.1301 46.4954 13.1411C46.4933 11.6144 46.4727 11.2501 44.2643 11.2501C43.3888 11.2501 42.4164 11.4245 41.5577 11.5781L41.3939 11.6077V10.0996L41.5059 10.0768C42.5006 9.87337 43.4591 9.77417 44.4369 9.77417C46.5776 9.77417 48.3913 9.99073 48.3913 12.6522V18.4581L48.2608 18.4715C46.7785 18.6383 45.6006 18.6611 44.5945 18.6611ZM45.2527 14.4401C43.6406 14.4401 42.6417 14.6778 42.6417 15.862C42.6417 17.232 43.9169 17.3464 45.1121 17.3464C45.5597 17.3464 46.3628 17.2895 46.6083 17.2709V14.4866C46.2618 14.4735 45.3618 14.4401 45.2527 14.4401Z" fill="white"/>
<path fill-rule="evenodd" clip-rule="evenodd" d="M82.3943 22.3239V18.62C81.6567 18.7239 81.2647 18.7239 80.9487 18.7239C80.2015 18.7239 79.3714 18.5609 78.7275 18.2873C77.2893 17.6887 76.4307 16.1646 76.4307 14.2099C76.4307 13.2325 76.6678 11.4488 78.255 10.4875C79.0496 10.0104 79.9913 9.80652 81.4039 9.80652C81.9111 9.80652 82.5943 9.8458 83.2543 9.8842L84.3263 9.93948V21.4664L82.3943 22.3239ZM81.2623 11.2972C79.3457 11.2972 78.3729 12.2772 78.3729 14.2099C78.3729 16.6957 79.8246 17.2176 81.0431 17.2176C81.3391 17.2176 81.6735 17.2176 82.4119 17.1242V11.3508C81.8335 11.3116 81.5679 11.2972 81.2623 11.2972Z" fill="white"/>
<path fill-rule="evenodd" clip-rule="evenodd" d="M21.4382 0.5L15.1941 17.6969C15.0408 18.1212 14.6538 18.431 14.1897 18.4779V18.4881H20.7896C21.3072 18.4881 21.7494 18.1583 21.9153 17.6969L28.1595 0.5H21.4382ZM13.6528 18.2254C14.0339 18.2254 14.37 18.0362 14.5755 17.7474C14.5971 17.7174 14.672 17.6119 14.7242 17.4679L17.0147 11.158L15.6751 7.47314C15.5041 7.06405 15.1003 6.77654 14.6299 6.77654C14.2491 6.77654 13.9127 6.96526 13.7071 7.25445C13.6857 7.28401 13.5964 7.41868 13.5585 7.53394L11.2688 13.8414L12.6139 17.541C12.7883 17.9434 13.1871 18.2254 13.6528 18.2254ZM7.46987 6.51281H14.1419V6.51661C13.6462 6.5373 13.2263 6.85689 13.0654 7.30356L6.82175 24.5H0.100098L6.34376 7.30356C6.51053 6.84211 6.95187 6.51281 7.46987 6.51281Z" fill="#0090BA"/>
</g>
<defs>
<clipPath id="clip0_37_347">
<rect width="85" height="24" fill="white" transform="translate(0 0.5)"/>
</clipPath>
</defs>
</svg>
