<svg width="200" height="60" viewBox="0 0 200 60" fill="none" xmlns="http://www.w3.org/2000/svg">
<path d="M25.948 60C25.948 60 0 52.3636 0 14.4935V0H51.8961V14.4935C51.8961 50.961 25.948 60 25.948 60Z" fill="#4FAF3B"/>
<path d="M40.9105 14.57H20.0273V26.57H40.9105V30.1544C40.9105 36.2324 39.1962 41.1414 29.9235 41.1414H20.0273V57.1155C23.4559 59.2194 25.9494 59.9986 25.9494 59.9986C25.9494 59.9986 51.8975 50.9596 51.8975 14.4921V3.58301C51.8975 9.66093 49.1702 14.4921 40.9105 14.57Z" fill="#03532F"/>
<path d="M66.3125 29.0648V8.57129H78.858V10.0518C78.858 11.6102 77.6112 12.857 76.0528 12.857H71.2995V17.1427H77.5333V18.6232C77.5333 20.1817 76.2865 21.4284 74.7281 21.4284H71.2995V29.0648H66.3125Z" fill="#1D1D1B"/>
<path d="M86.729 17.844H88.9108C89.768 17.844 90.3913 17.6102 90.8589 17.2206C91.3264 16.7531 91.5602 16.1297 91.5602 15.3505C91.5602 14.2596 91.1706 13.4804 90.3913 13.1687C89.9238 13.0128 89.3004 12.857 88.5212 12.857H86.8069V17.844H86.729ZM81.6641 29.0648V8.57129H88.755C90.5472 8.57129 91.8719 8.72713 92.729 9.03882C93.8978 9.50635 94.8329 10.2077 95.5342 11.2206C96.2355 12.2336 96.5472 13.4804 96.5472 14.9609C96.5472 16.1297 96.3134 17.2206 95.768 18.2336C95.2225 19.2466 94.4433 20.0258 93.5082 20.5713V20.6492C93.6641 20.883 93.9757 21.2726 94.2874 21.896L98.2615 29.0648H92.6511L88.9887 22.1297H86.6511V29.0648H81.6641Z" fill="#1D1D1B"/>
<path d="M100.52 29.0648V8.57129H113.377V12.857H105.584V16.5973H111.818V20.883H105.584V24.7791H113.766V29.0648H100.52Z" fill="#1D1D1B"/>
<path d="M116.961 29.0648V8.57129H129.818V12.857H121.948V16.5973H128.26V20.883H121.948V24.7791H130.208V29.0648H116.961Z" fill="#1D1D1B"/>
<path d="M138.389 24.7791H140.415C142.208 24.7791 143.532 24.2336 144.545 23.2206C145.558 22.2077 146.026 20.7271 146.026 18.7791C146.026 16.831 145.558 15.4284 144.545 14.4154C143.532 13.4025 142.208 12.9349 140.415 12.9349H138.389V24.7791ZM133.402 29.0648V8.57129H140.649C143.922 8.57129 146.493 9.50635 148.363 11.2986C150.234 13.0908 151.246 15.5843 151.246 18.7791C151.246 21.9739 150.311 24.4674 148.363 26.3375C146.493 28.1297 143.922 29.0648 140.649 29.0648H133.402Z" fill="#1D1D1B"/>
<path d="M158.573 18.7013C158.573 20.4935 159.118 21.8961 160.131 23.065C161.144 24.2338 162.469 24.7792 164.105 24.7792C165.741 24.7792 167.066 24.2338 168.079 23.065C169.092 21.8961 169.637 20.4156 169.637 18.7013C169.637 16.987 169.092 15.5844 168.079 14.4935C167.066 13.4026 165.741 12.8572 164.105 12.8572C162.469 12.8572 161.144 13.4026 160.131 14.4935C159.118 15.5844 158.573 16.987 158.573 18.7013ZM153.43 18.7013C153.43 15.7403 154.443 13.2468 156.469 11.2208C158.495 9.19483 161.066 8.25977 164.183 8.25977C167.3 8.25977 169.871 9.27275 171.897 11.2208C173.923 13.2468 174.936 15.7403 174.936 18.7013C174.936 21.7403 173.923 24.3117 171.897 26.3377C169.871 28.3637 167.3 29.3767 164.183 29.3767C161.066 29.3767 158.495 28.3637 156.469 26.3377C154.365 24.3117 153.43 21.7403 153.43 18.7013Z" fill="#1D1D1B"/>
<path d="M177.195 29.0648L178.91 8.57129H184.364L187.325 17.2206L188.338 20.5713H188.416C188.806 19.1687 189.117 18.0778 189.429 17.2206L192.39 8.57129H197.845L199.481 29.0648H194.494L193.871 19.87C193.793 19.4025 193.793 18.9349 193.793 18.3115C193.793 17.7661 193.793 17.2986 193.793 16.909V16.3635H193.715C193.247 17.7661 192.858 18.9349 192.546 19.7921L190.364 25.7141H186.078L183.897 19.7921L182.728 16.3635H182.65C182.728 17.6102 182.728 18.7791 182.65 19.7921L182.26 29.0648H177.195Z" fill="#1D1D1B"/>
<path d="M70.598 49.6375V38.3388H66.2344V35.2998H78.4681V38.3388H74.1045V49.7154H70.598V49.6375Z" fill="#1D1D1B"/>
<path d="M80.2617 49.6375V35.2998H83.7682V49.6375H80.2617Z" fill="#1D1D1B"/>
<path d="M86.0273 42.469C86.0273 40.3651 86.7286 38.5729 88.1312 37.1703C89.5338 35.7677 91.326 35.0664 93.5079 35.0664C94.5208 35.0664 95.4559 35.2223 96.4689 35.6119C97.404 35.9236 98.2611 36.469 98.8845 37.0924L97.2481 39.7417C96.7806 39.2742 96.2351 38.9625 95.5338 38.6508C94.9105 38.3391 94.2871 38.2612 93.6637 38.2612C92.339 38.2612 91.326 38.6508 90.6247 39.43C89.9234 40.2093 89.6118 41.2223 89.6118 42.3132C89.6118 43.482 90.0014 44.495 90.7027 45.3521C91.404 46.2093 92.4169 46.5989 93.7416 46.5989C95.1442 46.5989 96.391 45.9755 97.5598 44.8067L99.352 47.3781C97.7936 49.0145 95.8455 49.7937 93.5858 49.7937C91.326 49.7937 89.4559 49.0924 88.1312 47.6898C86.6507 46.3651 86.0273 44.5729 86.0273 42.469Z" fill="#1D1D1B"/>
<path d="M101.145 49.6375V35.2998H104.651V40.8323H106.132L109.093 35.2998H112.833L108.937 42.1569V42.2349L113.067 49.7154H109.093L106.054 43.8712H104.573V49.7154H101.145V49.6375Z" fill="#1D1D1B"/>
<path d="M114.703 49.6375V35.2998H123.664V38.3388H118.21V40.9881H122.573V44.0271H118.21V46.7543H123.976V49.7933H114.703V49.6375Z" fill="#1D1D1B"/>
<path d="M129.274 49.6375V38.3388H124.91V35.2998H137.144V38.3388H132.78V49.7154H129.274V49.6375Z" fill="#1D1D1B"/>
<path d="M155.379 49.6375V35.2998H158.963L162.937 42.0011C163.093 42.3128 163.249 42.6245 163.483 43.0141C163.717 43.4037 163.872 43.7933 163.95 44.0271L164.106 44.4167H164.184C164.106 43.4037 164.028 42.5466 164.028 42.0011V35.2998H167.535V49.6375H164.028L160.054 42.9362C159.898 42.6245 159.743 42.3128 159.509 41.9232C159.275 41.5336 159.119 41.144 159.041 40.9102L158.885 40.5206H158.807C158.885 41.5336 158.963 42.3907 158.963 42.9362V49.6375H155.379Z" fill="#1D1D1B"/>
<path fill-rule="evenodd" clip-rule="evenodd" d="M145.638 36.5C148.981 36.5 151.777 39.2349 151.777 42.6384C151.777 45.9811 149.042 48.7769 145.638 48.7769C142.235 48.7769 139.5 46.0419 139.5 42.6384C139.561 39.2349 142.296 36.5 145.638 36.5Z" fill="white"/>
<path fill-rule="evenodd" clip-rule="evenodd" d="M145.481 40.0527C145.871 40.0527 146.183 40.1307 146.494 40.2865L146.105 41.1436L145.326 42.78L146.962 42.0008L147.897 41.5333C148.053 41.8449 148.131 42.2346 148.131 42.6242C148.131 44.1047 146.962 45.2735 145.481 45.2735C144.001 45.2735 142.832 44.1047 142.832 42.6242C142.91 41.2216 144.079 40.0527 145.481 40.0527Z" fill="#1D1D1B"/>
<path fill-rule="evenodd" clip-rule="evenodd" d="M145.48 34.7539C149.765 34.7539 153.35 38.2604 153.35 42.624C153.35 46.9097 149.843 50.4942 145.48 50.4942C141.116 50.4942 137.609 46.9877 137.609 42.624C137.687 38.2604 141.194 34.7539 145.48 34.7539ZM145.48 37.5591C148.285 37.5591 150.467 39.8188 150.467 42.5461C150.467 45.2734 148.207 47.5331 145.48 47.5331C142.752 47.5331 140.492 45.2734 140.492 42.5461C140.492 39.8188 142.752 37.5591 145.48 37.5591Z" fill="#4FAF3B"/>
</svg>
