<svg width="118" height="36" viewBox="0 0 118 36" fill="none" xmlns="http://www.w3.org/2000/svg">
    <g clip-path="url(#clip0_3000_2521)">
        <path d="M15.3703 35.4967C15.3703 35.4967 0 30.9592 0 8.5704V0.000488281H30.7375V8.5704C30.7375 30.1581 15.3703 35.4967 15.3703 35.4967Z" fill="#51AE3E"/>
        <path d="M24.2472 8.63593H11.8691V15.7531H24.2502V17.8814C24.2502 21.4684 23.2309 24.3888 17.7548 24.4037H11.8691V33.7957C12.9644 34.503 14.1419 35.0742 15.3754 35.4965C15.3754 35.4965 30.7427 30.1579 30.7427 8.57017V2.1106C30.7427 5.71552 29.1495 8.57017 24.2472 8.63593Z" fill="#0E5531"/>
        <path d="M39.2832 21.2192H42.3919C45.1449 21.2192 46.9056 22.8214 46.9056 25.5774C46.9056 28.3334 45.1449 29.9685 42.3919 29.9685H39.2832V21.2192ZM42.3082 28.1332C43.7879 28.1332 44.6996 27.2364 44.6996 25.5774C44.6996 23.9184 43.758 23.0546 42.3082 23.0546H41.4115V28.1361L42.3082 28.1332Z" fill="#0f0f0f"/>
        <path d="M48.3009 21.2197H51.3469C51.9219 21.1805 52.4992 21.2516 53.0477 21.4289C54.0401 21.8085 54.6618 22.7023 54.6618 23.9727C54.6618 24.9023 54.2224 25.9186 53.3526 26.364V26.3909C53.474 26.5592 53.5848 26.7349 53.6844 26.917L55.3852 29.9749H52.9939L51.4395 27.0276H50.4352V29.9749H48.2949L48.3009 21.2197ZM51.3708 25.1833C52.0553 25.1833 52.4857 24.8067 52.4857 24.1072C52.4857 23.6678 52.3751 23.336 51.9716 23.1776C51.7132 23.0841 51.439 23.0425 51.1645 23.055H50.4411V25.1833H51.3708Z" fill="#0f0f0f"/>
        <path d="M58.4928 21.2192H56.3496V29.9685H58.4928V21.2192Z" fill="#0f0f0f"/>
        <path d="M59.3457 21.2192H61.6683L63.2107 26.1992C63.3811 26.7492 63.5425 27.6071 63.5425 27.6071H63.5664C63.5664 27.6071 63.7248 26.7492 63.8952 26.1992L65.4615 21.2192H67.7512L64.6664 29.9685H62.4395L59.3457 21.2192Z" fill="#0f0f0f"/>
        <path d="M68.5874 21.2192H74.0695V23.0546H70.7306V24.6478H73.397V26.4831H70.7306V28.1332H74.2399V29.9685H68.5874V21.2192Z" fill="#0f0f0f"/>
        <path d="M39.3408 17.1895V5.08936H46.748V5.9861C46.7456 6.42137 46.571 6.83799 46.2624 7.14493C45.9538 7.45187 45.5362 7.62417 45.1009 7.62416H42.315V10.159H46.0037V11.0198C46.0045 11.2422 45.9611 11.4625 45.8761 11.668C45.7911 11.8735 45.6661 12.0601 45.5085 12.2169C45.3508 12.3737 45.1636 12.4977 44.9577 12.5816C44.7517 12.6655 44.5312 12.7077 44.3088 12.7057H42.315V17.1895H39.3408Z" fill="#0f0f0f"/>
        <path d="M51.3694 10.5705H52.6548C53.069 10.5961 53.4764 10.4564 53.7877 10.1819C53.9284 10.037 54.0374 9.86435 54.1074 9.6749C54.1774 9.48544 54.207 9.28343 54.1942 9.08185C54.1942 8.41826 53.958 7.98782 53.4857 7.79652C53.1273 7.6694 52.7477 7.61257 52.3678 7.62912H51.3694V10.5705ZM48.4102 17.1914V5.09133H52.6219C53.4173 5.05751 54.2127 5.15858 54.9743 5.39024C55.6462 5.64054 56.2202 6.09935 56.6124 6.6995C57.0254 7.36067 57.2334 8.12929 57.2102 8.90848C57.2112 9.58276 57.0491 10.2473 56.738 10.8455C56.4494 11.43 55.9811 11.9067 55.4018 12.2055V12.2414C55.5688 12.474 55.7215 12.7166 55.8591 12.9678L58.2026 17.1914H54.9146L52.7654 13.1082H51.3784V17.1914H48.4102Z" fill="#0f0f0f"/>
        <path d="M59.5415 17.1805V5.08936H67.119V7.62715H62.5038V9.82418H66.1894V12.362H62.5038V14.6457H67.3581V17.1805H59.5415Z" fill="#0f0f0f"/>
        <path d="M69.2559 17.1805V5.08936H76.8334V7.62715H72.2151V9.82418H75.9037V12.362H72.2151V14.6457H77.0695V17.1805H69.2559Z" fill="#0f0f0f"/>
        <path d="M81.9295 14.6457H83.1491C84.1833 14.6457 84.9934 14.3468 85.5733 13.731C86.1532 13.1152 86.4461 12.2364 86.4461 11.1095C86.4461 9.98261 86.1472 9.12173 85.5673 8.52091C85.2473 8.21355 84.8674 7.97533 84.4514 7.82106C84.0354 7.66679 83.5921 7.59976 83.1491 7.62416H81.9295V14.6457ZM78.9702 17.1895V5.08936H83.2686C85.1837 5.08936 86.7032 5.62143 87.8271 6.68557C88.951 7.74971 89.512 9.22436 89.51 11.1095C89.51 13.0046 88.949 14.4903 87.8271 15.5664C86.7052 16.6425 85.1857 17.1835 83.2686 17.1895H78.9702Z" fill="#0f0f0f"/>
        <path d="M93.8333 11.0588C93.8015 12.0071 94.1305 12.9322 94.754 13.6475C95.0517 13.9726 95.4137 14.2322 95.8172 14.4098C96.2207 14.5874 96.6567 14.6792 97.0975 14.6792C97.5383 14.6792 97.9743 14.5874 98.3778 14.4098C98.7812 14.2322 99.1433 13.9726 99.441 13.6475C100.065 12.9328 100.395 12.0073 100.362 11.0588C100.391 10.1441 100.061 9.25423 99.441 8.58083C99.1363 8.26772 98.7719 8.01886 98.3694 7.84892C97.9669 7.67899 97.5344 7.59144 97.0975 7.59144C96.6606 7.59144 96.2281 7.67899 95.8256 7.84892C95.4231 8.01886 95.0587 8.26772 94.754 8.58083C94.1353 9.25491 93.8048 10.1443 93.8333 11.0588ZM90.7724 11.0588C90.7516 10.2421 90.8984 9.42972 91.2038 8.67191C91.5092 7.9141 91.9667 7.22693 92.548 6.65282C93.7317 5.47509 95.2492 4.88623 97.1005 4.88623C98.9518 4.88623 100.468 5.47509 101.65 6.65282C102.231 7.22693 102.689 7.9141 102.994 8.67191C103.3 9.42972 103.446 10.2421 103.426 11.0588C103.449 11.8924 103.303 12.7221 102.998 13.4982C102.693 14.2743 102.235 14.9808 101.65 15.5755C100.454 16.7831 98.9378 17.3859 97.1005 17.3839C95.2631 17.3819 93.7456 16.7791 92.548 15.5755C91.9633 14.9808 91.5047 14.2743 91.1996 13.4982C90.8945 12.7221 90.7492 11.8924 90.7724 11.0588Z" fill="#0f0f0f"/>
        <path d="M104.817 17.1905L105.816 5.09937H109.029L110.787 10.2078L111.385 12.2016H111.42C111.645 11.3915 111.848 10.725 112.018 10.2078L113.779 5.09937H116.992L117.994 17.1905H115.034L114.661 11.7443C114.64 11.4752 114.628 11.1703 114.628 10.8475C114.628 10.5247 114.628 10.2497 114.643 10.0345L114.661 9.73555H114.643C114.372 10.5805 114.147 11.256 113.967 11.7622L112.7 15.2655H110.159L108.889 11.7622L108.201 9.71761H108.168C108.21 10.3925 108.21 11.0694 108.168 11.7443L107.795 17.1905H104.817Z" fill="#0f0f0f"/>
    </g>
    <defs>
        <clipPath id="clip0_3000_2521">
            <rect width="118" height="35.4963" fill="white"/>
        </clipPath>
    </defs>
</svg>
