<?xml version="1.0" encoding="UTF-8"?><svg id="Layer_1" xmlns="http://www.w3.org/2000/svg" width="4514.3983" height="2201.8139" viewBox="0 0 4514.3983 2201.8139"><defs><style>.cls-1{letter-spacing:0em;}.cls-2{stroke:#60bb46;stroke-linecap:round;stroke-width:12px;}.cls-2,.cls-3,.cls-4{stroke-miterlimit:10;}.cls-2,.cls-4{fill:none;}.cls-5{font-family:MyriadPro-Regular, 'Myriad Pro';}.cls-5,.cls-6{fill:#f5f5f6;font-size:43px;}.cls-6{font-family:Manrope-Regular, Manrope;font-variation-settings:'wght' 400;}.cls-7{fill:#fff;font-family:Manrope-ExtraBold, Manrope;font-size:60px;font-variation-settings:'wght' 800;font-weight:700;}.cls-3{fill:#f4f4f5;stroke-width:10px;}.cls-3,.cls-4{stroke:#f4f4f5;}.cls-8{letter-spacing:-.08em;}.cls-9{letter-spacing:-.06em;}.cls-10{letter-spacing:-.02em;}.cls-11{letter-spacing:-.02em;}.cls-12{letter-spacing:-.03em;}</style></defs><line class="cls-4" x1="382.9797" y1="1817.9876" x2="4103.5132" y2="1817.9876"/><line class="cls-4" x1="382.9797" y1="1817.9876" x2="382.9797" y2="1783.2517"/><line class="cls-4" x1="538.0019" y1="1817.9876" x2="538.0019" y2="1783.2517"/><line class="cls-4" x1="693.0241" y1="1817.9876" x2="693.0241" y2="1783.2517"/><line class="cls-4" x1="848.0464" y1="1817.9876" x2="848.0464" y2="1783.2517"/><line class="cls-4" x1="1003.0686" y1="1817.9876" x2="1003.0686" y2="1783.2517"/><line class="cls-4" x1="1158.0908" y1="1817.9876" x2="1158.0908" y2="1783.2517"/><line class="cls-4" x1="1313.1131" y1="1817.9876" x2="1313.1131" y2="1783.2517"/><line class="cls-4" x1="1468.1353" y1="1817.9876" x2="1468.1353" y2="1783.2517"/><line class="cls-4" x1="1623.1575" y1="1817.9876" x2="1623.1575" y2="1783.2517"/><line class="cls-4" x1="1778.1798" y1="1817.9876" x2="1778.1798" y2="1783.2517"/><line class="cls-4" x1="1933.202" y1="1817.9876" x2="1933.202" y2="1783.2517"/><line class="cls-4" x1="2088.2242" y1="1817.9876" x2="2088.2242" y2="1783.2517"/><line class="cls-4" x1="2243.2465" y1="1817.9876" x2="2243.2465" y2="1783.2517"/><line class="cls-4" x1="2398.2687" y1="1817.9876" x2="2398.2687" y2="1783.2517"/><line class="cls-4" x1="2553.2909" y1="1817.9876" x2="2553.2909" y2="1783.2517"/><line class="cls-4" x1="2708.3132" y1="1817.9876" x2="2708.3132" y2="1783.2517"/><line class="cls-4" x1="2863.3354" y1="1817.9876" x2="2863.3354" y2="1783.2517"/><line class="cls-4" x1="3018.3576" y1="1817.9876" x2="3018.3576" y2="1783.2517"/><line class="cls-4" x1="3173.3798" y1="1817.9876" x2="3173.3798" y2="1783.2517"/><line class="cls-4" x1="3328.4021" y1="1817.9876" x2="3328.4021" y2="1783.2517"/><line class="cls-4" x1="3483.4243" y1="1817.9876" x2="3483.4243" y2="1783.2517"/><line class="cls-4" x1="3638.4465" y1="1817.9876" x2="3638.4465" y2="1783.2517"/><line class="cls-4" x1="3793.4688" y1="1817.9876" x2="3793.4688" y2="1783.2517"/><line class="cls-4" x1="3948.491" y1="1817.9876" x2="3948.491" y2="1783.2517"/><line class="cls-4" x1="4103.5132" y1="1817.9876" x2="4103.5132" y2="1783.2517"/><text class="cls-6" transform="translate(298.6173 1866.8349)"><tspan x="0" y="0">0</tspan></text><text class="cls-6" transform="translate(301.0685 1396.8004)"><tspan x="0" y="0">3</tspan></text><text class="cls-6" transform="translate(298.1652 1017.9678)"><tspan x="0" y="0">6</tspan></text><text class="cls-6" transform="translate(298.1652 664.977)"><tspan x="0" y="0">9</tspan></text><text class="cls-6" transform="translate(281.8478 477.4023)"><tspan x="0" y="0">10</tspan></text><line class="cls-4" x1="382.9797" y1="1817.9876" x2="382.9797" y2="428.5551"/><line class="cls-4" x1="382.9797" y1="1817.9876" x2="475.993" y2="1817.9876"/><line class="cls-4" x1="382.9797" y1="1390.6294" x2="475.993" y2="1390.6294"/><line class="cls-4" x1="382.9797" y1="973.2713" x2="475.993" y2="973.2713"/><line class="cls-4" x1="382.9797" y1="625.9132" x2="475.993" y2="625.9132"/><line class="cls-4" x1="382.9797" y1="428.5551" x2="475.993" y2="428.5551"/><text class="cls-5" transform="translate(4161.6466 1866.8349)"><tspan x="0" y="0">0</tspan></text><text class="cls-6" transform="translate(4161.6466 1519.4765)"><tspan x="0" y="0">50</tspan></text><text class="cls-6" transform="translate(4161.6466 1172.1186)"><tspan x="0" y="0">100</tspan></text><text class="cls-6" transform="translate(4161.6466 824.7602)"><tspan x="0" y="0">150</tspan></text><text class="cls-6" transform="translate(4161.6466 477.4023)"><tspan x="0" y="0">200</tspan></text><line class="cls-4" x1="4103.5132" y1="1817.9876" x2="4103.5132" y2="428.5551"/><line class="cls-4" x1="4103.5132" y1="1817.9876" x2="4010.4999" y2="1817.9876"/><line class="cls-4" x1="4103.5132" y1="1470.6294" x2="4010.4999" y2="1470.6294"/><line class="cls-4" x1="4103.5132" y1="1123.2713" x2="4010.4999" y2="1123.2713"/><line class="cls-4" x1="4103.5132" y1="775.9132" x2="4010.4999" y2="775.9132"/><line class="cls-4" x1="4103.5132" y1="428.5551" x2="4010.4999" y2="428.5551"/><line class="cls-2" x1="615.513" y1="1644.3085" x2="460.4908" y2="1679.0443"/><line class="cls-2" x1="770.5352" y1="1609.5727" x2="615.513" y2="1644.3085"/><line class="cls-2" x1="925.5575" y1="1574.8369" x2="770.5352" y2="1609.5727"/><line class="cls-2" x1="1080.5797" y1="1505.3653" x2="925.5575" y2="1574.8369"/><line class="cls-2" x1="1235.6019" y1="1401.1578" x2="1080.5797" y2="1505.3653"/><line class="cls-2" x1="1390.6242" y1="1296.9504" x2="1235.6019" y2="1401.1578"/><line class="cls-2" x1="1545.6464" y1="1262.2146" x2="1390.6242" y2="1296.9504"/><line class="cls-2" x1="1700.6686" y1="1331.6862" x2="1545.6464" y2="1262.2146"/><line class="cls-2" x1="1855.6909" y1="1192.743" x2="1700.6686" y2="1331.6862"/><line class="cls-2" x1="2010.7131" y1="1227.4788" x2="1855.6909" y2="1192.743"/><line class="cls-2" x1="2165.7353" y1="1123.2713" x2="2010.7131" y2="1227.4788"/><line class="cls-2" x1="2320.7576" y1="1262.2146" x2="2165.7353" y2="1123.2713"/><line class="cls-2" x1="2475.7798" y1="984.3281" x2="2320.7576" y2="1262.2146"/><line class="cls-2" x1="2630.802" y1="1053.7997" x2="2475.7798" y2="984.3281"/><line class="cls-2" x1="2785.8243" y1="914.8565" x2="2630.802" y2="1053.7997"/><line class="cls-2" x1="2940.8465" y1="845.3848" x2="2785.8243" y2="914.8565"/><line class="cls-2" x1="3095.8687" y1="1123.2713" x2="2940.8465" y2="845.3848"/><line class="cls-2" x1="3250.891" y1="1053.7997" x2="3095.8687" y2="1123.2713"/><line class="cls-2" x1="3405.9132" y1="984.3281" x2="3250.891" y2="1053.7997"/><line class="cls-2" x1="3560.9354" y1="775.9132" x2="3405.9132" y2="984.3281"/><line class="cls-2" x1="3715.9577" y1="636.97" x2="3560.9354" y2="775.9132"/><line class="cls-2" x1="3870.9799" y1="775.9132" x2="3715.9577" y2="636.97"/><line class="cls-2" x1="4026.0021" y1="532.7625" x2="3870.9799" y2="775.9132"/><rect class="cls-3" x="457.4908" y="1676.0443" width="6" height="6"/><rect class="cls-3" x="612.513" y="1641.3085" width="6" height="6"/><rect class="cls-3" x="767.5352" y="1606.5727" width="6" height="6"/><rect class="cls-3" x="922.5575" y="1571.8369" width="6" height="6"/><rect class="cls-3" x="1077.5797" y="1502.3653" width="6" height="6"/><rect class="cls-3" x="1232.6019" y="1398.1578" width="6" height="6"/><rect class="cls-3" x="1387.6242" y="1293.9504" width="6" height="6"/><rect class="cls-3" x="1542.6464" y="1259.2146" width="6" height="6"/><rect class="cls-3" x="1697.6686" y="1328.6862" width="6" height="6"/><rect class="cls-3" x="1852.6909" y="1189.743" width="6" height="6"/><rect class="cls-3" x="2007.7131" y="1224.4788" width="6" height="6"/><rect class="cls-3" x="2162.7353" y="1120.2713" width="6" height="6"/><rect class="cls-3" x="2317.7576" y="1259.2146" width="6" height="6"/><rect class="cls-3" x="2472.7798" y="981.3281" width="6" height="6"/><rect class="cls-3" x="2627.802" y="1050.7997" width="6" height="6"/><rect class="cls-3" x="2782.8243" y="911.8565" width="6" height="6"/><rect class="cls-3" x="2937.8465" y="842.3848" width="6" height="6"/><rect class="cls-3" x="3092.8687" y="1120.2713" width="6" height="6"/><rect class="cls-3" x="3247.891" y="1050.7997" width="6" height="6"/><rect class="cls-3" x="3402.9132" y="981.3281" width="6" height="6"/><rect class="cls-3" x="3557.9354" y="772.9132" width="6" height="6"/><rect class="cls-3" x="3712.9577" y="633.97" width="6" height="6"/><rect class="cls-3" x="3867.9799" y="772.9132" width="6" height="6"/><rect class="cls-3" x="4023.0021" y="529.7625" width="6" height="6"/><text class="cls-6" transform="translate(4026.0019 1861.3589) rotate(90)"><tspan x="0" y="0">июл. 25</tspan></text><text class="cls-6" transform="translate(3870.9785 1866.0679) rotate(90)"><tspan x="0" y="0">апр. 25</tspan></text><text class="cls-6" transform="translate(3715.959 1866.8736) rotate(90)"><tspan x="0" y="0">янв. 25</tspan></text><text class="cls-6" transform="translate(3560.9355 1870.5923) rotate(90)"><tspan x="0" y="0">ок</tspan><tspan class="cls-8" x="46.7617" y="0">т</tspan><tspan x="65.1006" y="0">. </tspan><tspan class="cls-11" x="84.6016" y="0">2</tspan><tspan x="108.251" y="0">4</tspan></text><text class="cls-6" transform="translate(3405.914 1861.5308) rotate(90)"><tspan x="0" y="0">июл. </tspan><tspan class="cls-10" x="102.7246" y="0">2</tspan><tspan class="cls-1" x="126.375" y="0">4</tspan></text><text class="cls-6" transform="translate(3250.8906 1866.2388) rotate(90)"><tspan x="0" y="0">апр. </tspan><tspan class="cls-10" x="93.3086" y="0">2</tspan><tspan class="cls-1" x="116.959" y="0">4</tspan></text><text class="cls-6" transform="translate(3095.8691 1867.0454) rotate(90)"><tspan x="0" y="0">янв. </tspan><tspan class="cls-11" x="91.6963" y="0">2</tspan><tspan x="115.3457" y="0">4</tspan></text><text class="cls-6" transform="translate(2940.8476 1870.9478) rotate(90)"><tspan x="0" y="0">ок</tspan><tspan class="cls-8" x="46.7617" y="0">т</tspan><tspan x="65.1006" y="0">. 23</tspan></text><text class="cls-6" transform="translate(2785.8242 1861.8853) rotate(90)"><tspan x="0" y="0">июл. 23</tspan></text><text class="cls-6" transform="translate(2630.8008 1866.5938) rotate(90)"><tspan x="0" y="0">апр. 23</tspan></text><text class="cls-6" transform="translate(2475.7793 1867.3999) rotate(90)"><tspan x="0" y="0">янв. 23</tspan></text><text class="cls-6" transform="translate(2320.7578 1870.5816) rotate(90)"><tspan x="0" y="0">ок</tspan><tspan class="cls-8" x="46.7617" y="0">т</tspan><tspan x="65.1006" y="0">. 22</tspan></text><text class="cls-6" transform="translate(2165.7363 1861.52) rotate(90)"><tspan x="0" y="0">июл. 22</tspan></text><text class="cls-6" transform="translate(2010.7129 1866.228) rotate(90)"><tspan x="0" y="0">апр. 22</tspan></text><text class="cls-6" transform="translate(1855.6904 1867.0347) rotate(90)"><tspan x="0" y="0">янв. 22</tspan></text><text class="cls-6" transform="translate(1700.6689 1874.4517) rotate(90)"><tspan x="0" y="0">ок</tspan><tspan class="cls-8" x="46.7617" y="0">т</tspan><tspan x="65.1006" y="0">. 21</tspan></text><text class="cls-6" transform="translate(1545.6465 1865.3902) rotate(90)"><tspan x="0" y="0">июл. 21</tspan></text><text class="cls-6" transform="translate(1390.624 1870.0982) rotate(90)"><tspan x="0" y="0">апр. 21</tspan></text><text class="cls-6" transform="translate(1235.6015 1870.9048) rotate(90)"><tspan x="0" y="0">янв. 21</tspan></text><text class="cls-6" transform="translate(1080.5801 1869.7222) rotate(90)"><tspan x="0" y="0">ок</tspan><tspan class="cls-8" x="46.7617" y="0">т</tspan><tspan x="65.1006" y="0">. 20</tspan></text><text class="cls-6" transform="translate(925.5576 1860.6607) rotate(90)"><tspan x="0" y="0">июл. 20</tspan></text><text class="cls-6" transform="translate(770.5351 1865.3687) rotate(90)"><tspan x="0" y="0">апр. 20</tspan></text><text class="cls-6" transform="translate(615.5127 1866.1743) rotate(90)"><tspan x="0" y="0">янв. 20</tspan></text><text class="cls-6" transform="translate(460.4902 1873.3657) rotate(90)"><tspan x="0" y="0">ок</tspan><tspan class="cls-8" x="46.7617" y="0">т</tspan><tspan x="65.1006" y="0">. 19</tspan></text><text class="cls-7" transform="translate(371.6553 217.804)"><tspan x="0" y="0">ОБЪЕМ ТОРГОВ</tspan><tspan x="0" y="72">(МИЛЛИОНОВ АКЦИЙ)</tspan></text><text class="cls-7" transform="translate(3947.0671 237.4732)"><tspan x="0" y="0">ЦЕНА</tspan><tspan x="-10.3799" y="72">(</tspan><tspan class="cls-12" x="17.3398" y="72">U</tspan><tspan x="59.0996" y="72">S</tspan><tspan class="cls-9" x="99.3594" y="72">D</tspan><tspan x="138.3584" y="72">)</tspan></text></svg>