<svg width="663" height="114" viewBox="0 0 663 114" fill="none" xmlns="http://www.w3.org/2000/svg">
  <g clip-path="url(#clip0_1114_4826)">
    <path d="M437.83 93.85C437.83 93.85 404.57 84 404.57 35.59V17H471.08V35.59C471.08 82.3 437.83 93.85 437.83 93.85Z" fill="#4FAF3D"/>
    <path d="M489.56 54.24V28H505.62V30C505.62 30.4688 505.528 30.933 505.348 31.3662C505.169 31.7993 504.906 32.1929 504.574 32.5244C504.243 32.8559 503.849 33.1188 503.416 33.2982C502.983 33.4777 502.519 33.57 502.05 33.57H496V39H504V40.86C504 41.8254 503.617 42.7512 502.934 43.4339C502.251 44.1165 501.325 44.5 500.36 44.5H496V54.21L489.56 54.24Z" fill="black"/>
    <path d="M515.66 39.9101H518.45C519.348 39.9637 520.232 39.662 520.91 39.0701C521.213 38.7536 521.447 38.378 521.599 37.9668C521.75 37.5556 521.815 37.1176 521.79 36.6801C521.867 36.1127 521.758 35.5357 521.481 35.0349C521.203 34.534 520.772 34.1361 520.25 33.9001C519.476 33.6172 518.653 33.4914 517.83 33.5301H515.66V39.9101ZM509.25 54.2401V28.0001H518.38C520.099 27.9198 521.82 28.1294 523.47 28.6201C524.921 29.1782 526.158 30.1833 527 31.4901C527.891 32.9251 528.336 34.592 528.28 36.2801C528.288 37.7401 527.945 39.1806 527.28 40.4801C526.662 41.7666 525.645 42.8189 524.38 43.4801V43.5501C524.742 44.0583 525.076 44.5858 525.38 45.1301L530.48 54.2901H523.33L518.67 45.4601H515.67V54.2901L509.25 54.2401Z" fill="black"/>
    <path d="M533.37 54.2398V28.0298H549.8V33.5298H539.79V38.2998H547.78V43.7998H539.79V48.7498H550.31V54.2398H533.37Z" fill="black"/>
    <path d="M554.42 54.2398V28.0298H570.85V33.5298H560.84V38.2998H568.83V43.7998H560.84V48.7498H571.36V54.2398H554.42Z" fill="black"/>
    <path d="M581.88 48.75H584.52C585.488 48.8037 586.456 48.6534 587.362 48.3088C588.269 47.9643 589.092 47.4332 589.78 46.75C591.13 45.1738 591.809 43.1309 591.67 41.06C591.738 40.0451 591.604 39.0268 591.276 38.0639C590.948 37.101 590.433 36.2126 589.76 35.45C589.067 34.7842 588.243 34.2683 587.342 33.9345C586.44 33.6007 585.48 33.4562 584.52 33.51H581.88V48.75ZM575.46 54.24V28H584.78C588.927 28 592.22 29.1533 594.66 31.46C597.1 33.7667 598.317 36.9633 598.31 41.05C598.31 45.1567 597.093 48.3767 594.66 50.71C592.227 53.0433 588.933 54.21 584.78 54.21L575.46 54.24Z" fill="black"/>
    <path d="M607.69 41C607.622 43.0558 608.337 45.0608 609.69 46.61C610.334 47.3156 611.118 47.8792 611.991 48.2648C612.865 48.6504 613.81 48.8496 614.765 48.8496C615.72 48.8496 616.665 48.6504 617.539 48.2648C618.412 47.8792 619.196 47.3156 619.84 46.61C621.198 45.0634 621.913 43.0566 621.84 41C621.906 39.0166 621.187 37.0871 619.84 35.63C619.18 34.953 618.39 34.415 617.519 34.0476C616.647 33.6803 615.711 33.491 614.765 33.491C613.819 33.491 612.883 33.6803 612.011 34.0476C611.14 34.415 610.35 34.953 609.69 35.63C608.346 37.0894 607.628 39.0173 607.69 41ZM601.05 41C601.008 39.2299 601.327 37.4698 601.989 35.8276C602.651 34.1854 603.642 32.6958 604.9 31.45C607.595 28.9863 611.114 27.6201 614.765 27.6201C618.416 27.6201 621.935 28.9863 624.63 31.45C625.892 32.6933 626.884 34.1825 627.547 35.8252C628.209 37.468 628.527 39.2294 628.48 41C628.532 42.8072 628.218 44.6061 627.556 46.2886C626.894 47.9711 625.899 49.5023 624.63 50.79C621.963 53.3083 618.433 54.7112 614.765 54.7112C611.097 54.7112 607.567 53.3083 604.9 50.79C603.633 49.5009 602.639 47.9695 601.977 46.2874C601.316 44.6052 601 42.8069 601.05 41Z" fill="black"/>
    <path d="M631.52 54.24L633.68 28H640.68L644.49 39.07L645.81 43.4H645.89C646.38 41.64 646.82 40.2 647.21 39.07L651 28H658L660.12 54.21H653.71L652.9 42.41C652.85 41.82 652.83 41.16 652.83 40.41C652.83 39.66 652.83 39.09 652.83 38.65V37.99H652.76C652.17 39.82 651.68 41.29 651.29 42.39L648.57 50H643.07L640.32 42.41L638.85 38H638.78C638.88 39.465 638.88 40.935 638.78 42.4L637.98 54.2L631.52 54.24Z" fill="black"/>
    <path d="M489.86 82.3001V66.6201H493.69V72.8901H499.39V66.6201H503.23V82.3001H499.39V76.1601H493.69V82.3001H489.86Z" fill="black"/>
    <path d="M509.63 74.3599C509.589 75.5886 510.018 76.7867 510.83 77.7099C511.215 78.1317 511.684 78.4685 512.206 78.699C512.729 78.9295 513.294 79.0485 513.865 79.0485C514.436 79.0485 515.001 78.9295 515.524 78.699C516.046 78.4685 516.515 78.1317 516.9 77.7099C517.712 76.7867 518.141 75.5886 518.1 74.3599C518.137 73.1708 517.706 72.0146 516.9 71.1399C516.505 70.7351 516.033 70.4133 515.512 70.1936C514.991 69.9739 514.431 69.8608 513.865 69.8608C513.299 69.8608 512.739 69.9739 512.218 70.1936C511.697 70.4133 511.225 70.7351 510.83 71.1399C510.024 72.0146 509.593 73.1708 509.63 74.3599ZM505.63 74.3599C505.6 73.2997 505.789 72.2448 506.185 71.2607C506.581 70.2767 507.175 69.3846 507.93 68.6399C509.542 67.1678 511.647 66.3516 513.83 66.3516C516.013 66.3516 518.118 67.1678 519.73 68.6399C520.483 69.386 521.076 70.2784 521.472 71.2621C521.867 72.2458 522.057 73.3 522.03 74.3599C522.061 75.4398 521.874 76.5149 521.479 77.5203C521.083 78.5257 520.488 79.4407 519.73 80.2099C518.586 81.3958 517.111 82.2095 515.498 82.545C513.885 82.8805 512.208 82.7222 510.686 82.0908C509.164 81.4593 507.868 80.384 506.966 79.005C506.064 77.6261 505.598 76.0074 505.63 74.3599Z" fill="black"/>
    <path d="M524.5 82.3001V66.6201H528.34V79.0101H534.74V82.3001H524.5Z" fill="black"/>
    <path d="M540.45 79.0002H542C542.579 79.0336 543.159 78.9449 543.701 78.7399C544.244 78.5349 544.738 78.2182 545.15 77.8102C545.956 76.8678 546.361 75.6476 546.28 74.4102C546.322 73.8041 546.242 73.1958 546.047 72.6207C545.851 72.0455 545.543 71.5151 545.14 71.0602C544.724 70.6627 544.23 70.3554 543.69 70.1575C543.15 69.9596 542.574 69.8755 542 69.9102H540.43L540.45 79.0002ZM536.61 82.2902V66.6202H542.18C544.345 66.5067 546.469 67.2503 548.09 68.6902C548.834 69.4394 549.413 70.3366 549.789 71.3236C550.164 72.3107 550.328 73.3657 550.27 74.4202C550.329 75.4823 550.165 76.5451 549.79 77.5404C549.415 78.5357 548.836 79.4416 548.09 80.2002C547.291 80.9218 546.358 81.4788 545.344 81.8391C544.33 82.1995 543.255 82.3562 542.18 82.3002L536.61 82.2902Z" fill="black"/>
    <path d="M556.61 66.6201H552.77V82.3001H556.61V66.6201Z" fill="black"/>
    <path d="M559.9 82.3001V66.6201H563.78L568.12 73.9401C568.3 74.2501 568.49 74.6201 568.71 75.0701C568.93 75.5201 569.11 75.8901 569.24 76.1801L569.44 76.6201C569.335 75.7304 569.275 74.8359 569.26 73.9401V66.6201H573.1V82.3001H569.24L564.92 75.0001C564.74 74.7001 564.54 74.3201 564.32 73.8701C564.1 73.4201 563.93 73.0601 563.8 72.7701L563.6 72.3301C563.702 73.2166 563.759 74.1078 563.77 75.0001V82.3001H559.9Z" fill="black"/>
    <path d="M575.6 74.4199C575.574 73.3529 575.767 72.292 576.168 71.3029C576.569 70.3138 577.168 69.4176 577.93 68.6699C578.702 67.9028 579.623 67.3014 580.636 66.9025C581.648 66.5036 582.732 66.3155 583.82 66.3499C586.01 66.275 588.15 67.0203 589.82 68.4399L588 71.3099C586.927 70.4156 585.586 69.9053 584.19 69.8599C583.582 69.791 582.967 69.8565 582.388 70.0519C581.808 70.2472 581.279 70.5676 580.837 70.9903C580.395 71.413 580.052 71.9277 579.831 72.4979C579.611 73.0681 579.518 73.6799 579.56 74.2899C579.529 74.9263 579.628 75.5623 579.852 76.159C580.075 76.7557 580.418 77.3004 580.86 77.7599C581.277 78.1791 581.775 78.5095 582.323 78.7312C582.871 78.9529 583.459 79.0613 584.05 79.0499C585.209 79.043 586.331 78.6408 587.23 77.9099V76.6999H585V73.4399H590.61V82.2999H587.41V81.8599V81.1999C586.872 81.6511 586.25 81.991 585.58 82.1999C584.84 82.4403 584.068 82.5651 583.29 82.5699C582.282 82.5848 581.281 82.3959 580.348 82.0144C579.415 81.6329 578.569 81.0667 577.86 80.3499C577.091 79.5748 576.492 78.6482 576.102 77.6289C575.711 76.6097 575.537 75.5202 575.59 74.4299" fill="black"/>
    <path d="M598.49 74.4202C598.46 73.353 598.649 72.2911 599.047 71.3002C599.444 70.3093 600.041 69.4107 600.8 68.6602C601.575 67.8924 602.5 67.2914 603.516 66.8942C604.532 66.4969 605.619 66.3118 606.71 66.3502C607.801 66.3509 608.884 66.5404 609.91 66.9102C610.912 67.2657 611.825 67.8318 612.59 68.5702L610.81 71.4602C610.272 70.9827 609.661 70.5944 609 70.3102C608.347 70.0224 607.643 69.8693 606.93 69.8602C606.314 69.8171 605.696 69.9124 605.122 70.139C604.547 70.3657 604.031 70.718 603.61 71.1702C602.865 72.0519 602.47 73.1764 602.5 74.3302C602.474 75.5387 602.882 76.7164 603.65 77.6502C604.051 78.1213 604.556 78.493 605.125 78.7359C605.694 78.9789 606.312 79.0864 606.93 79.0502C607.718 79.0287 608.494 78.8465 609.209 78.5146C609.925 78.1827 610.565 77.7082 611.09 77.1202L613.09 79.9302C612.278 80.7842 611.296 81.4592 610.207 81.9121C609.119 82.365 607.948 82.5857 606.77 82.5602C605.68 82.6247 604.59 82.459 603.568 82.0739C602.547 81.6887 601.619 81.0927 600.843 80.3248C600.068 79.5568 599.463 78.6341 599.068 77.6168C598.672 76.5994 598.496 75.5102 598.55 74.4202" fill="black"/>
    <path d="M617.72 74.3599C617.68 75.5867 618.105 76.7831 618.91 77.7099C619.296 78.1319 619.766 78.469 620.289 78.6995C620.812 78.9301 621.378 79.0492 621.95 79.0492C622.522 79.0492 623.088 78.9301 623.611 78.6995C624.134 78.469 624.604 78.1319 624.99 77.7099C625.795 76.7831 626.22 75.5867 626.18 74.3599C626.218 73.1743 625.795 72.02 625 71.1399C624.604 70.7348 624.131 70.4128 623.609 70.193C623.087 69.9732 622.526 69.8599 621.96 69.8599C621.394 69.8599 620.833 69.9732 620.311 70.193C619.789 70.4128 619.316 70.7348 618.92 71.1399C618.121 72.0184 617.694 73.1729 617.73 74.3599M613.73 74.3599C613.703 73.3 613.893 72.2458 614.288 71.2621C614.684 70.2784 615.277 69.386 616.03 68.6399C617.642 67.1678 619.747 66.3516 621.93 66.3516C624.113 66.3516 626.218 67.1678 627.83 68.6399C628.583 69.386 629.176 70.2784 629.572 71.2621C629.967 72.2458 630.157 73.3 630.13 74.3599C630.161 75.4398 629.974 76.5149 629.579 77.5203C629.183 78.5257 628.589 79.4407 627.83 80.2099C626.236 81.7193 624.125 82.5605 621.93 82.5605C619.735 82.5605 617.624 81.7193 616.03 80.2099C615.272 79.4407 614.677 78.5257 614.281 77.5203C613.886 76.5149 613.698 75.4398 613.73 74.3599Z" fill="black"/>
    <path d="M636.42 73.7199H638.09C638.627 73.7513 639.154 73.5719 639.56 73.2199C639.743 73.0314 639.884 72.8069 639.976 72.5607C640.067 72.3145 640.106 72.052 640.09 71.7899C640.137 71.4509 640.073 71.1057 639.907 70.8063C639.741 70.507 639.483 70.2696 639.17 70.1299C638.706 69.9608 638.213 69.886 637.72 69.9099H636.42V73.7199ZM632.59 82.2999V66.6199H638.05C639.064 66.5732 640.078 66.6983 641.05 66.9899C641.924 67.3131 642.671 67.9092 643.18 68.6899C643.712 69.5468 643.98 70.5416 643.95 71.5499C643.952 72.4235 643.743 73.2847 643.34 74.0599C642.967 74.8228 642.356 75.4439 641.6 75.8299C641.819 76.1305 642.02 76.4444 642.2 76.7699L645.2 82.2599H641L638.22 76.9999H636.42V82.2999H632.59Z" fill="black"/>
    <path d="M650.85 74.16H652.74C653.015 74.176 653.29 74.1315 653.546 74.0296C653.801 73.9276 654.032 73.7707 654.22 73.57C654.575 73.13 654.757 72.5749 654.73 72.01C654.762 71.4553 654.583 70.909 654.23 70.48C654.05 70.2865 653.829 70.1351 653.584 70.0366C653.338 69.9381 653.074 69.8949 652.81 69.91H650.81L650.85 74.16ZM647 82.3V66.62H653.51C654.197 66.5926 654.883 66.7133 655.519 66.9738C656.156 67.2343 656.729 67.6286 657.2 68.13C658.171 69.1801 658.688 70.5707 658.64 72C658.696 73.4419 658.187 74.8487 657.22 75.92C656.75 76.4227 656.177 76.8185 655.54 77.0808C654.904 77.343 654.218 77.4655 653.53 77.44H650.85V82.3H647Z" fill="black"/>
    <path d="M659.16 80.5002C659.163 80.0236 659.353 79.5673 659.69 79.2303C660.027 78.8933 660.483 78.7028 660.96 78.7002C661.437 78.7002 661.895 78.8898 662.233 79.2274C662.57 79.565 662.76 80.0228 662.76 80.5002C662.76 80.9776 662.57 81.4354 662.233 81.773C661.895 82.1106 661.437 82.3002 660.96 82.3002C660.483 82.2976 660.027 82.1071 659.69 81.7701C659.353 81.4331 659.163 80.9768 659.16 80.5002Z" fill="black"/>
    <path d="M457 35.7298H430.24V51.1298H457V55.7298C457 63.5298 454.8 69.8198 443 69.8498H430.24V90.1698C432.61 91.7025 435.159 92.9384 437.83 93.8498C437.83 93.8498 471.08 82.2998 471.08 35.5898V21.5898C471.08 29.3898 467.64 35.5898 457.03 35.7098" fill="#145431"/>
    <path d="M357.05 -3.91992H356.05V114.08H357.05V-3.91992Z" fill="#D9D9D9"/>
    <g clip-path="url(#clip1_1114_4826)">
      <path d="M304.696 42.5874H264.35V72.0379H304.696V42.5874Z" fill="white"/>
      <path d="M284.724 22.8018C265.834 22.8018 250.459 37.8631 250.459 56.4009C250.459 74.9387 265.834 90.0001 284.724 90.0001C303.615 90.0001 318.994 74.9387 318.994 56.4009C318.994 37.8631 303.615 22.8018 284.724 22.8018ZM279.746 65.5201L274.995 59.4877L273.238 61.363V65.519H268.579V48.8936H273.238V55.8063L279.677 48.8936H284.856L278.059 56.2565L285.212 65.519H279.747L279.746 65.5201ZM301.106 65.5201H286.211V62.5756L294.597 52.625H286.423V48.8947H300.75V51.8392L292.364 61.7898H301.106V65.5201Z" fill="#F57D40"/>
      <path d="M31.793 64.4244C31.9609 66.5767 31.1248 68.5613 29.4527 70.0511C27.7827 71.3752 25.775 72.0378 23.7704 72.0378C22.4329 72.0378 20.9286 71.7065 19.758 70.8794C18.923 70.2168 18.4205 69.0583 18.4205 67.8998C18.4205 65.2526 20.0926 63.9285 23.2679 63.9285H31.793V64.4254V64.4244ZM43.3277 36.1217C41.1552 34.135 38.6482 32.6473 35.8054 31.818C32.6301 30.8263 29.2859 30.3304 25.9428 30.3304C21.4301 30.1647 16.9173 31.1586 12.9049 32.9776C8.89254 34.9643 5.21585 37.6126 2.04057 40.7578L10.5657 52.0113C12.5714 50.1902 14.7438 48.7026 16.9184 47.3774C19.0908 46.2189 21.4311 45.7219 23.7714 45.7219C25.9439 45.5563 28.2842 46.2189 29.9563 47.7087C31.1259 49.0328 31.7941 50.6872 31.7941 52.3426V53.1698H20.7619C14.4113 53.1698 9.2293 54.4939 5.55154 57.1432C1.87272 59.7894 -0.299724 64.0941 0.0338452 68.5613C0.0338452 70.7137 0.368476 72.7004 1.20346 74.6861C1.87272 76.6707 3.0434 78.3261 4.54765 79.8159C6.21762 81.3057 8.05756 82.6298 10.23 83.2924C12.7371 84.1207 15.412 84.6155 18.0869 84.6155C21.0944 84.6155 23.9371 84.1207 26.7789 83.1278C29.2859 82.2996 31.4584 80.9755 33.464 79.1544V83.2935H50.0129V53.1698C50.1786 49.6954 49.5104 46.3845 48.3408 43.0737C47.1712 40.5921 45.4991 38.1095 43.3256 36.1228" fill="#53C95A"/>
      <path d="M70.5022 37.1155V31.6544H53.7876V83.459H72.0075V59.7903C72.0075 55.1564 73.1771 52.0112 75.3506 50.1901C78.0255 48.2055 81.3676 47.2116 84.7107 47.3773H89.0577V31.6544C87.3856 31.1575 85.7146 30.8262 83.8757 30.8262C78.6937 30.8262 73.8463 33.1421 70.5032 37.1155" fill="#53C95A"/>
      <path d="M128.978 62.2729C128.477 63.597 127.64 64.7566 126.637 65.7494C125.634 66.7422 124.632 67.4048 123.294 67.734C122.124 68.231 120.787 68.3966 119.45 68.3966C118.112 68.3966 116.942 68.231 115.772 67.734C114.602 67.4048 113.432 66.7422 112.429 65.7494C111.426 64.7566 110.589 63.597 110.088 62.4386C109.419 60.9488 109.084 59.2955 109.251 57.4744C109.251 55.819 109.586 54.1635 110.088 52.5081C110.589 51.184 111.426 50.0265 112.429 49.0337C113.432 48.0409 114.434 47.3783 115.772 46.8813C116.941 46.3844 118.279 46.2187 119.45 46.2187C120.787 46.2187 121.957 46.3844 123.294 46.8813C124.632 47.3783 125.634 48.0398 126.637 49.0337C127.64 50.0265 128.477 51.184 128.978 52.5081C129.647 53.9979 129.98 55.6533 129.812 57.3087C129.812 59.1298 129.48 60.7831 128.978 62.2729ZM141.347 38.1094C139.175 35.6257 136.332 33.8057 133.325 32.4826C130.147 31.1585 126.637 30.4959 123.127 30.4959C118.112 30.3302 113.265 31.9857 109.588 35.4601V6H91.3682V83.6236H108.083V78.326C111.427 82.6297 116.608 84.7821 123.294 84.7821C126.804 84.7821 130.314 84.1195 133.489 82.7953C136.499 81.4712 139.34 79.6501 141.514 77.1665C143.854 74.6849 145.526 71.7053 146.696 68.5601C148.033 65.0857 148.702 61.4436 148.534 57.6379C148.534 53.8301 147.866 50.1901 146.696 46.7136C145.359 43.5684 143.519 40.5899 141.346 38.1072" fill="#53C95A"/>
      <path d="M183.641 31.6533V60.7842C183.641 62.7709 182.972 64.7555 181.468 66.2453C179.963 67.5694 178.125 68.3977 176.118 68.3977H175.45C171.271 68.232 168.096 64.9212 168.262 60.7842V31.6533H150.042V59.2934C150.042 62.9355 150.711 66.4099 152.048 69.7208C153.218 72.6993 155.056 75.3475 157.396 77.6655C159.737 79.9836 162.578 81.6369 165.587 82.7953C168.931 83.9538 172.44 84.6164 175.95 84.6164C179.46 84.6164 182.972 83.9538 186.148 82.7953C189.157 81.6369 191.998 79.9825 194.338 77.6655C196.678 75.3475 198.517 72.6993 199.688 69.7208C201.025 66.4099 201.694 62.7699 201.694 59.2934V31.6533H183.642H183.641Z" fill="#53C95A"/>
      <path d="M249.67 36.2873V31.6523H203.703V46.5501H223.429L201.364 78.8241V83.4591H249.838V68.5613H227.774L249.67 36.2873Z" fill="#53C95A"/>
      <path d="M296.505 12.1323C296.505 9.9704 294.751 8.21729 292.588 8.21729C291.65 8.21729 290.789 8.54752 290.116 9.09756C288.715 10.0681 281.629 15.543 281.057 27.3306C280.953 29.4766 282.609 31.3009 284.756 31.405C284.821 31.4081 284.885 31.4092 284.949 31.4092C287.012 31.4092 288.732 29.7888 288.833 27.7076C289.215 19.818 293.51 16.2544 294.38 15.611C295.641 14.9611 296.506 13.6487 296.506 12.1323H296.505Z" fill="#F57D40"/>
    </g>
  </g>
  <defs>
  <clipPath id="clip0_1114_4826">
    <rect width="663" height="114" fill="white"/>
  </clipPath>
  <clipPath id="clip1_1114_4826">
    <rect width="318.994" height="84" fill="white" transform="translate(0 6)"/>
  </clipPath>
</defs>
  </svg>
