<svg xmlns="http://www.w3.org/2000/svg" width="458" height="140" fill="none" viewBox="0 0 458 140"><path fill="#fff" d="M213.191 54.8426H218.202L225.975 69.5802H237.903L229.402 54.2931C228.707 53.0651 228.157 52.1924 227.753 51.6591V51.5299C229.838 50.4633 231.438 48.8312 232.586 46.6011C233.734 44.3711 234.299 42.0441 234.299 39.604C234.299 36.4528 233.588 33.8027 232.166 31.6212C230.743 29.4396 228.755 27.8559 226.234 26.8864C224.44 26.1915 221.596 25.8359 217.733 25.8359H202.508V69.5641H213.207V54.8426H213.191ZM213.191 35.0308H216.795C218.557 35.0308 219.899 35.2409 220.836 35.6448C222.549 36.3397 223.405 37.8911 223.405 40.2989C223.405 42.0118 222.921 43.3369 221.935 44.2741C220.949 45.2114 219.591 45.6801 217.83 45.6801H213.175V35.0308H213.191Z"/><path fill="#fff" d="M272.37 60.3854H254.801V52.1278H268.135V42.9491H254.801V34.9985H271.514V25.8359H244.102V69.564H272.37V60.3854Z"/><path fill="#fff" d="M306.838 60.3854H289.286V52.1278H302.62V42.9491H289.286V34.9985H305.982V25.8359H278.57V69.564H306.838V60.3854Z"/><path fill="#fff" d="M328.571 25.8359H313.039V69.564H328.571C335.504 69.564 340.999 67.6087 345.057 63.7304C349.113 59.8359 351.15 54.4547 351.15 47.6192C351.15 40.8159 349.113 35.4833 345.057 31.6211C340.999 27.759 335.504 25.8359 328.571 25.8359ZM336.927 57.0888C334.826 59.2865 331.901 60.3854 328.151 60.3854H323.754V34.9985H328.151C331.868 34.9985 334.777 36.0812 336.895 38.2304C339.012 40.3958 340.063 43.5146 340.063 47.5869C340.078 51.7238 339.028 54.891 336.927 57.0888Z"/><path fill="#fff" d="M380.218 23.7656C373.527 23.7656 368.047 25.8987 363.765 30.1649C359.481 34.4311 357.348 39.7314 357.348 46.0983C357.348 52.6268 359.498 58.0726 363.765 62.4358C368.047 66.7989 373.527 68.9804 380.218 68.9804C386.909 68.9804 392.388 66.7989 396.671 62.4358C400.954 58.0726 403.087 52.6268 403.087 46.0983C403.087 39.7314 400.954 34.4311 396.671 30.1649C392.388 25.8987 386.909 23.7656 380.218 23.7656ZM388.687 55.4547C386.456 57.9433 383.644 59.1876 380.218 59.1876C376.792 59.1876 373.962 57.9433 371.749 55.4547C369.518 52.9662 368.419 49.8473 368.419 46.0983C368.419 42.5109 369.534 39.5213 371.749 37.1297C373.962 34.7381 376.792 33.5584 380.218 33.5584C383.644 33.5584 386.472 34.7542 388.687 37.1297C390.917 39.5213 392.016 42.5109 392.016 46.0983C392.032 49.8473 390.917 52.9662 388.687 55.4547Z"/><path fill="#fff" d="M409.289 68.7473L412.909 24.793H424.594L430.995 43.3604L433.209 50.6161H433.339C434.163 47.6589 434.89 45.2512 435.552 43.3604L441.953 24.793H453.638L457.21 68.7473H446.446L445.088 48.9517C445.007 47.9659 444.959 46.8671 444.959 45.6389C444.959 44.4109 444.975 43.4251 445.024 42.6817L445.088 41.5828H444.959C443.974 44.6532 443.149 47.1095 442.503 48.9517L437.896 61.6855H428.667L424.061 48.9517L421.605 41.5828H421.475C421.637 44.2816 421.637 46.7378 421.475 48.9517L420.118 68.7473H409.289Z"/><path fill="#fff" d="M169.508 69.5802H180.224V53.3721H187.497C190.842 53.3721 193.558 50.6572 193.558 47.3122V44.1934H180.224V35.0147H190.358C193.639 35.0147 196.305 32.3483 196.305 29.0517V25.8359H169.508V69.5802Z"/><path fill="#fff" d="M281.086 114.181L291.798 82.6699H299.909L310.62 114.181H302.686L300.746 107.571H290.916L289.02 114.181H281.086ZM292.723 101.4H298.939L297.176 95.2749L295.897 89.8535H295.809C295.339 92.1451 294.913 93.9523 294.53 95.2749L292.723 101.4Z"/><path fill="#fff" d="M268.207 114.181V82.6699H275.921V114.181H268.207Z"/><path fill="#fff" d="M235.578 114.181V82.6699H246.775C251.77 82.6699 255.723 84.066 258.632 86.857C261.571 89.6183 263.04 93.4529 263.04 98.36C263.04 103.296 261.571 107.174 258.632 109.995C255.723 112.786 251.77 114.181 246.775 114.181H235.578ZM243.292 107.571H246.466C249.17 107.571 251.271 106.777 252.769 105.191C254.297 103.604 255.062 101.327 255.062 98.36C255.062 95.4215 254.297 93.1738 252.769 91.6167C251.241 90.0597 249.14 89.2804 246.466 89.2804H243.292V107.571Z"/><path fill="#fff" d="M210.047 114.181V82.6699H229.795V89.2804H217.761V95.0099H227.371V101.621H217.761V107.571H230.412V114.181H210.047Z"/><path fill="#fff" d="M170.539 114.181L173.14 82.6699H181.515L186.099 95.9797L187.686 101.18H187.774C188.362 99.0648 188.891 97.3314 189.361 95.9797L193.946 82.6699H202.321L204.877 114.181H197.164L196.194 99.9899C196.135 99.2851 196.106 98.4917 196.106 97.6105C196.106 96.7293 196.12 96.0236 196.15 95.4952L196.194 94.7018H196.106C195.4 96.9057 194.812 98.6681 194.343 99.9899L191.036 109.113H184.424L181.119 99.9899L179.355 94.7018H179.267C179.384 96.6407 179.384 98.4039 179.267 99.9899L178.298 114.181H170.539Z"/><mask id="a" width="149" height="139" x="0" y="0" maskUnits="userSpaceOnUse" style="mask-type:luminance"><path fill="#fff" d="M148.804 0H0V138.671H148.804V0Z"/></mask><g mask="url(#a)"><path fill="url(#b)" fill-rule="evenodd" d="M90.411 116.741L125.847 81.3267L120.588 76.0677C119.905 75.3852 119.905 74.2611 120.588 73.5786L127.292 66.8743C127.974 66.1919 129.098 66.1919 129.781 66.8743L135.032 72.1333C137.939 69.0341 137.882 64.1203 134.855 61.0933L82.9496 9.15267H71.1728C71.1327 9.54101 70.9652 9.91818 70.6704 10.2129L63.9662 16.9172C63.2837 17.5997 62.1596 17.5997 61.4772 16.9172L55.8889 11.3209L51.6497 15.5576V36.2349C51.6497 86.5656 76.2196 108.354 90.411 116.741ZM88.2974 118.854C84.023 116.265 78.9408 112.549 73.8643 107.353C61.1807 94.3699 48.751 72.3609 48.751 36.2349V18.4547L14.3384 52.8475L19.9266 58.4438C20.6091 59.1262 20.6091 60.2503 19.9266 60.9328L13.2223 67.6371C12.5398 68.3195 11.4158 68.3195 10.7332 67.6371L5.14502 62.0488C2.26258 65.1481 2.32681 70.0459 5.34575 73.0648L64.0786 131.838C67.0975 134.857 71.9872 134.929 75.0945 132.047L69.8435 126.788C69.161 126.105 69.161 124.981 69.8435 124.299L76.5478 117.595C77.2302 116.912 78.3543 116.912 79.0368 117.595L84.2955 122.853L88.2974 118.854ZM69.2005 6.25396H80.0531L76.1222 2.32033C73.0953 -0.70664 68.1814 -0.770872 65.0822 2.13566L69.2005 6.25396ZM62.2801 116.735L68.9844 110.03C69.6668 109.348 69.6668 108.224 68.9844 107.542L62.4166 100.966C61.7341 100.283 60.61 100.283 59.9276 100.966L53.2232 107.67C52.5408 108.353 52.5408 109.476 53.2232 110.159L59.791 116.735C60.4735 117.417 61.5976 117.417 62.2801 116.735ZM46.1255 100.572L52.8298 93.868C53.5123 93.1855 53.5123 92.0616 52.8298 91.3792L46.262 84.8032C45.5795 84.1208 44.4555 84.1208 43.773 84.8032L37.0687 91.5076C36.3862 92.19 36.3862 93.3139 37.0687 93.9963L43.6365 100.572C44.319 101.255 45.443 101.255 46.1255 100.572ZM29.8104 84.2491L36.5147 77.545C37.1972 76.8625 37.1972 75.7385 36.5147 75.0559L29.9469 68.4801C29.2644 67.7977 28.1403 67.7977 27.4579 68.4801L20.7536 75.1845C20.0711 75.8669 20.0711 76.991 20.7536 77.6735L27.3214 84.2491C28.0038 84.9316 29.128 84.9316 29.8104 84.2491ZM113.024 66.0232L119.728 59.319C120.41 58.6364 120.41 57.5124 119.728 56.8299L113.16 50.254C112.478 49.5716 111.354 49.5716 110.671 50.254L103.967 56.9584C103.285 57.6408 103.285 58.7649 103.967 59.4474L110.535 66.0232C111.217 66.7057 112.341 66.7057 113.024 66.0232ZM96.8694 49.8606L103.574 43.1564C104.256 42.4738 104.256 41.3498 103.574 40.6674L97.006 34.0915C96.3236 33.409 95.1997 33.409 94.5173 34.0915L87.8129 40.7958C87.1304 41.4783 87.1304 42.6023 87.8129 43.2848L94.3806 49.8606C95.063 50.5431 96.1869 50.5431 96.8694 49.8606ZM80.5543 33.5375L87.2588 26.8332C87.9413 26.1507 87.9413 25.0266 87.2588 24.3442L80.6908 17.7684C80.0083 17.0858 78.8842 17.0858 78.2018 17.7684L71.4975 24.4726C70.815 25.1551 70.815 26.2792 71.4975 26.9617L78.0653 33.5375C78.7477 34.22 79.8718 34.22 80.5543 33.5375Z" clip-rule="evenodd"/><path fill="#55B043" d="M100.225 121.345C100.225 121.345 51.6484 107.005 51.6484 36.2364V9.1543H148.801V36.2364C148.801 104.476 100.225 121.345 100.225 121.345Z"/><path fill="#21593A" d="M128.271 36.4529H89.1445V58.9424H128.278V65.6708C128.278 77.0561 125.066 86.241 107.756 86.2816H89.1445V115.973C95.5681 119.972 100.225 121.345 100.225 121.345C100.225 121.345 148.8 104.476 148.8 36.2362V15.8262C148.8 27.2114 143.767 36.2442 128.271 36.4529Z"/></g><defs><linearGradient id="b" x1="3.031" x2="164.792" y1=".002" y2="72.654" gradientUnits="userSpaceOnUse"><stop offset=".093" stop-color="#0CFE00"/><stop offset=".506" stop-color="#1100CE"/><stop offset=".816"/></linearGradient></defs></svg>