<svg xmlns="http://www.w3.org/2000/svg" width="125" height="39" viewBox="0 0 125 39" fill="none"><g clip-path="url(#clip0_437_5625)"><path d="M16.282 38.294C16.282 38.294 0 33.489 0 9.78024V0.705078H32.5609V9.78024C32.5609 32.6407 16.282 38.294 16.282 38.294Z" fill="#4FB84E"></path><path d="M25.6798 9.84949H12.5674V17.3863H25.6829V19.64C25.6829 23.4385 24.6032 26.5311 18.8022 26.5469H12.5674V36.4926C13.7276 37.2416 14.9749 37.8465 16.2817 38.2937C16.2817 38.2937 32.5605 32.6403 32.5605 9.77985V2.93945C32.5605 6.75691 30.8728 9.77985 25.6798 9.84949Z" fill="#055532"></path><path d="M41.7502 19.1202V6.46492H48.8942V7.41157C48.8942 8.35822 48.2029 9.1554 47.2811 9.1554H44.5617V11.7961H48.1107V12.6929C48.1107 13.6395 47.3733 14.4367 46.4975 14.4367H44.5617V19.1202H41.7502ZM53.4111 12.1947H54.6556C55.1165 12.1947 55.4852 12.0452 55.7618 11.7961C56.0383 11.5469 56.1766 11.1484 56.1766 10.6501C56.1766 9.95258 55.9461 9.50417 55.4852 9.30487C55.2548 9.20523 54.886 9.10558 54.4251 9.10558H53.4572V12.1947H53.4111ZM50.5074 19.1202V6.46492H54.5634C55.5774 6.46492 56.3609 6.56457 56.8218 6.76386C57.5132 7.0628 58.0202 7.51122 58.3889 8.1091C58.7576 8.75681 58.942 9.50417 58.942 10.401C58.942 11.0985 58.8037 11.7961 58.4811 12.4438C58.1585 13.0915 57.7437 13.5399 57.1906 13.8887V13.9385C57.2827 14.088 57.4671 14.3371 57.6515 14.6858L59.9099 19.1202H56.7297L54.6556 14.8353H53.3189V19.1202H50.5074ZM61.2926 19.1202V6.46492H68.621V9.10558H64.1503V11.3975H67.6992V14.088H64.1503V16.4795H68.8515V19.1202H61.2926ZM70.6951 19.1202V6.46492H78.0235V9.10558H73.5527V11.3975H77.1017V14.088H73.5527V16.4795H78.254V19.1202H70.6951ZM82.9552 16.4795H84.1536C85.1676 16.4795 85.9511 16.1805 86.5042 15.5328C87.0573 14.8851 87.3339 13.9883 87.3339 12.7925C87.3339 11.5968 87.0573 10.6999 86.5042 10.1021C85.9511 9.45434 85.1676 9.1554 84.1536 9.1554H82.9552V16.4795ZM80.0515 19.1202V6.46492H84.1997C86.0433 6.46492 87.5182 7.01298 88.6244 8.15893C89.7306 9.25505 90.2376 10.7996 90.2376 12.7925C90.2376 14.7855 89.6845 16.33 88.6244 17.476C87.5182 18.6219 86.0894 19.17 84.1997 19.17H80.0515V19.1202ZM94.4779 12.6929C94.4779 13.789 94.7544 14.6858 95.3536 15.3834C95.9528 16.0809 96.6903 16.4795 97.6121 16.4795C98.5339 16.4795 99.2713 16.1307 99.8705 15.3834C100.47 14.6858 100.746 13.7392 100.746 12.6929C100.746 11.6466 100.47 10.7996 99.8705 10.1021C99.2713 9.40452 98.5339 9.05575 97.6121 9.05575C96.6903 9.05575 95.9528 9.40452 95.3536 10.1021C94.7544 10.7996 94.4779 11.6466 94.4779 12.6929ZM91.482 12.6929C91.482 10.8494 92.0351 9.30487 93.1874 8.1091C94.3396 6.86351 95.8145 6.26562 97.6121 6.26562C99.4096 6.26562 100.885 6.86351 101.991 8.1091C103.143 9.3547 103.696 10.8992 103.696 12.6929C103.696 14.5862 103.143 16.1307 101.991 17.4261C100.838 18.6717 99.3635 19.3194 97.6121 19.3194C95.8145 19.3194 94.3396 18.6717 93.1874 17.4261C92.0812 16.1806 91.482 14.5862 91.482 12.6929ZM105.079 19.1202L106.047 6.46492H109.135L110.84 11.7961L111.439 13.8887H111.485C111.716 13.0417 111.9 12.3441 112.085 11.7961L113.79 6.46492H116.878L117.846 19.1202H114.988L114.62 13.4402C114.62 13.1413 114.573 12.8424 114.573 12.4936V11.3476H114.527C114.251 12.2445 114.066 12.942 113.882 13.4901L112.638 17.1272H110.195L108.95 13.4901L108.305 11.3476H108.259C108.305 12.1448 108.305 12.8424 108.259 13.4901L107.89 19.17H105.079V19.1202ZM41.7041 32.4231L42.4416 23.3053H44.7L45.9444 27.1916L46.3593 28.6863H46.4053C46.5436 28.0884 46.728 27.5902 46.8202 27.1916L48.0646 23.3053H50.3231L51.0144 32.4729H48.9403L48.6638 28.3375C48.6638 28.1382 48.6177 27.8891 48.6177 27.64V26.793H48.5716C48.3872 27.4407 48.2029 27.939 48.1107 28.3375L47.235 30.9782H45.4374L44.5617 28.3375L44.1008 26.793H44.0547C44.1008 27.3411 44.1008 27.8891 44.0547 28.3375L43.7782 32.4729H41.7041V32.4231ZM51.9362 27.7895C51.9362 26.4442 52.351 25.3481 53.1807 24.4513C54.0103 23.5545 55.0704 23.1061 56.3609 23.1061C57.6515 23.1061 58.7116 23.5545 59.5412 24.4513C60.3708 25.3481 60.7856 26.4442 60.7856 27.7895C60.7856 29.1347 60.3708 30.2807 59.5412 31.2273C58.7116 32.1241 57.6515 32.6224 56.3609 32.6224C55.0704 32.6224 54.0103 32.174 53.1807 31.2273C52.351 30.3305 51.9362 29.1845 51.9362 27.7895ZM54.1025 27.7895C54.1025 28.5867 54.3329 29.2344 54.7478 29.7326C55.1626 30.2308 55.7157 30.5298 56.407 30.5298C57.0523 30.5298 57.6054 30.2807 58.0663 29.7326C58.4811 29.2344 58.7116 28.5368 58.7116 27.7895C58.7116 27.0421 58.4811 26.3944 58.0663 25.8962C57.6515 25.3979 57.0984 25.1488 56.407 25.1488C55.7618 25.1488 55.2087 25.3979 54.7478 25.8962C54.3329 26.4442 54.1025 27.0421 54.1025 27.7895ZM62.1223 32.4231V23.3053H65.2564C66.1322 23.3053 66.8235 23.5046 67.3305 23.9032C67.8375 24.3018 68.114 24.8997 68.114 25.6969C68.114 26.0955 68.0219 26.4442 67.8375 26.793C67.6531 27.1418 67.4227 27.4407 67.1001 27.64V27.6898C67.561 27.8393 67.8836 28.0884 68.114 28.487C68.3445 28.8856 68.4367 29.2842 68.4367 29.7326C68.4367 30.6793 68.114 31.327 67.5149 31.7754C66.9157 32.2238 66.1322 32.4231 65.2103 32.4231H62.1223ZM64.1963 26.8428H65.2564C65.4869 26.8428 65.6712 26.7432 65.8095 26.5937C65.9478 26.4442 65.9939 26.2449 65.9939 25.9958C65.9939 25.7467 65.9478 25.5972 65.8095 25.4478C65.6712 25.2983 65.4869 25.2485 65.2103 25.2485H64.1963V26.8428ZM64.1963 30.5298H65.4408C65.7173 30.5298 65.9478 30.4301 66.0861 30.2308C66.2243 30.0316 66.3165 29.8323 66.3165 29.5333C66.3165 29.2842 66.2243 29.0351 66.0861 28.8856C65.9478 28.6863 65.7173 28.6365 65.4408 28.6365H64.1963V30.5298ZM69.8194 32.4231V23.3053H71.8935V32.4729H69.8194V32.4231ZM73.6449 32.4231V23.3053H75.719V30.5298H79.1758V32.4729H73.6449V32.4231ZM80.1898 32.4231V23.3053H85.4902V25.2485H82.2639V26.8927H84.845V28.786H82.2639V30.5298H85.6746V32.4729H80.1898V32.4231Z" fill="#0F0F0F"></path></g><defs><clipPath id="clip0_437_5625"><rect width="125" height="37.589" fill="white" transform="translate(0 0.705078)"></rect></clipPath></defs></svg>