<svg xmlns="http://www.w3.org/2000/svg" width="101" height="31" viewBox="0 0 101 31" fill="none"><g clip-path="url(#clip0_1_843)"><path d="M35.7709 26.1579V20.4274H33.5771V18.9053H39.7553V20.4274H37.5616V26.1579H35.7709Z" fill="black"></path><path d="M40.6504 26.1579V18.9053H45.2169V20.4274H42.4412V21.7705H44.6349V23.2927H42.4412V24.6805H45.3512V26.2027H40.6504V26.1579Z" fill="black"></path><path d="M46.4707 26.1579V18.9053H48.2615V24.6358H51.2163V26.1579H46.4707Z" fill="black"></path><path d="M52.1113 26.1579V18.9053H56.6778V20.4274H53.9021V21.7705H56.0958V23.2927H53.9021V24.6805H56.8121V26.2027H52.1113V26.1579Z" fill="black"></path><path d="M57.5293 22.5316C57.5293 21.4572 57.8875 20.5618 58.6038 19.8455C59.3201 19.1292 60.2155 18.771 61.3347 18.771C61.8272 18.771 62.3196 18.8605 62.8121 19.0396C63.3046 19.2187 63.7075 19.4873 64.0656 19.8007L63.2598 21.1438C63.0359 20.9199 62.7226 20.7409 62.4092 20.6065C62.0958 20.4722 61.7824 20.3827 61.469 20.3827C60.7975 20.3827 60.2602 20.6065 59.9468 21.0095C59.6335 21.4124 59.4096 21.9049 59.4096 22.4869C59.4096 23.0689 59.5887 23.6061 59.9468 24.009C60.305 24.4567 60.7975 24.6806 61.469 24.6806C62.1406 24.6806 62.8121 24.3672 63.3941 23.7852L64.2895 25.0835C63.4836 25.8893 62.5435 26.2923 61.3795 26.2923C60.2155 26.2923 59.3201 25.9341 58.6038 25.2178C57.8875 24.5463 57.5293 23.6061 57.5293 22.5316Z" fill="black"></path><path d="M64.7812 22.4869C64.7812 21.4124 65.1394 20.5618 65.8557 19.8455C66.572 19.1292 67.4674 18.771 68.5867 18.771C69.7059 18.771 70.6013 19.1292 71.3176 19.8455C72.0339 20.5618 72.3921 21.4572 72.3921 22.4869C72.3921 23.5613 72.0339 24.4567 71.3176 25.2178C70.6013 25.9341 69.7059 26.2923 68.5867 26.2923C67.4674 26.2923 66.572 25.9341 65.8557 25.2178C65.1394 24.5015 64.7812 23.5613 64.7812 22.4869ZM66.6168 22.4869C66.6168 23.1136 66.7959 23.6061 67.154 24.0538C67.5122 24.4567 68.0047 24.6806 68.5419 24.6806C69.1239 24.6806 69.5716 24.4567 69.9297 24.0538C70.2879 23.6509 70.467 23.1136 70.467 22.4869C70.467 21.9049 70.2879 21.4124 69.9297 21.0095C69.5716 20.6065 69.0791 20.4275 68.5419 20.4275C67.9599 20.4275 67.5122 20.6065 67.154 21.0095C66.7959 21.4124 66.6168 21.9049 66.6168 22.4869Z" fill="black"></path><path d="M73.2432 26.1579L73.8252 18.9053H75.7503L76.8247 21.9944L77.1829 23.2031C77.3172 22.7107 77.4515 22.3078 77.541 21.9944L78.6155 18.9053H80.5406L81.1226 26.1579H79.3318L79.108 22.8898C79.108 22.7107 79.108 22.5316 79.108 22.3525C79.108 22.1287 79.108 21.9944 79.108 21.8601V21.681C78.9289 22.1734 78.7946 22.5764 78.705 22.8898L77.944 24.9939H76.4218L75.6607 22.8898L75.2578 21.681C75.3026 22.1287 75.3026 22.5316 75.2578 22.8898L75.0339 26.1579H73.2432Z" fill="black"></path><path d="M33.5771 15.7718V5.38525H39.9344V6.14633C39.9344 6.90742 39.3076 7.53419 38.5466 7.53419H36.129V9.72789H39.3076V10.4442C39.3076 11.2501 38.6809 11.8768 37.875 11.8768H36.1738V15.727H33.5771V15.7718Z" fill="black"></path><path d="M43.8743 10.086H44.9935C45.3964 10.086 45.7098 9.99651 45.9784 9.77266C46.2023 9.54881 46.3366 9.23543 46.3366 8.8325C46.3366 8.2505 46.1128 7.89234 45.7098 7.71327C45.486 7.62373 45.1726 7.57896 44.7697 7.57896H43.8743V10.086ZM41.3672 15.7718V5.38525H44.9935C45.8889 5.38525 46.5604 5.47479 47.0081 5.65387C47.5901 5.87772 48.0826 6.28064 48.396 6.77311C48.7542 7.31034 48.8885 7.93711 48.8885 8.65342C48.8885 9.23543 48.7542 9.77266 48.4855 10.3099C48.2169 10.8471 47.814 11.2053 47.3215 11.4739V11.5187C47.4111 11.653 47.5454 11.8321 47.7245 12.1454L49.7391 15.7718H46.9186L45.0831 12.2798H43.8743V15.7718H41.3672Z" fill="black"></path><path d="M50.9033 15.7718V5.38525H57.3949V7.57896H53.4104V9.45928H56.589V11.6082H53.4104V13.5781H57.574V15.7718H50.9033Z" fill="black"></path><path d="M59.1855 15.7718V5.38525H65.6771V7.57896H61.7374V9.45928H64.916V11.6082H61.7374V13.5781H65.901V15.7718H59.1855Z" fill="black"></path><path d="M70.0646 13.5781H71.0943C71.9896 13.5781 72.6612 13.3094 73.1536 12.817C73.6461 12.2798 73.9147 11.5634 73.9147 10.5785C73.9147 9.59358 73.6461 8.87727 73.1536 8.34004C72.6612 7.84757 71.9449 7.57896 71.0943 7.57896H70.0646V13.5781ZM67.5127 15.7718V5.38525H71.1838C72.8403 5.38525 74.1386 5.83295 75.0787 6.77311C76.0189 7.6685 76.5114 8.96681 76.5114 10.5785C76.5114 12.1902 76.0189 13.4885 75.0787 14.3839C74.1386 15.3241 72.7955 15.7718 71.1838 15.7718H67.5127Z" fill="black"></path><path d="M80.2275 10.4889C80.2275 11.3842 80.4961 12.1006 81.0333 12.7273C81.5706 13.3093 82.2421 13.6227 83.048 13.6227C83.8538 13.6227 84.5254 13.3093 85.0626 12.7273C85.5998 12.1453 85.8685 11.3842 85.8685 10.4889C85.8685 9.63823 85.5998 8.92192 85.0626 8.38469C84.5254 7.80268 83.8538 7.53407 83.048 7.53407C82.2421 7.53407 81.5706 7.80268 81.0333 8.38469C80.4961 8.96669 80.2275 9.683 80.2275 10.4889ZM77.6309 10.4889C77.6309 8.96669 78.1233 7.71315 79.153 6.72822C80.1827 5.69852 81.481 5.20605 83.048 5.20605C84.6149 5.20605 85.9132 5.69852 86.9429 6.72822C87.9726 7.75792 88.4651 9.01146 88.4651 10.4889C88.4651 12.011 87.9726 13.3093 86.9429 14.339C85.9132 15.3687 84.6149 15.906 83.048 15.906C81.481 15.906 80.1827 15.3687 79.153 14.339C78.1233 13.3541 77.6309 12.0558 77.6309 10.4889Z" fill="black"></path><path d="M89.6729 15.7714L90.5235 5.42969H93.2544L94.7766 9.81709L95.3138 11.5183H95.3586C95.5377 10.802 95.7167 10.2648 95.8958 9.81709L97.418 5.42969H100.149L101 15.7714H98.4477L98.1343 11.1154C98.1343 10.8916 98.0895 10.6229 98.0895 10.3543C98.0895 10.0857 98.0895 9.81709 98.0895 9.63802V9.3694H98.0447C97.8209 10.0857 97.6418 10.6677 97.4627 11.1154L96.3883 14.115H94.1946L93.1201 11.1154L92.5381 9.3694H92.4933C92.5381 9.99617 92.5381 10.5782 92.4933 11.1154L92.2247 15.7714H89.6729Z" fill="black"></path><g filter="url(#filter0_b_1_843)"><path d="M14.0407 30.6228C14.0407 30.6228 1.04102 26.6933 1.04102 7.40728V0H27.0847V7.40728C27.0403 26.0158 14.0407 30.6228 14.0407 30.6228Z" fill="url(#paint0_linear_1_843)" fill-opacity="0.59"></path></g><path d="M21.5641 7.34412H11.0576V13.5155H21.5641V15.376C21.5641 18.507 20.7183 21.0028 16.0438 21.0482H11.0576V29.1708C12.7939 30.2599 14.0404 30.6229 14.0404 30.6229C14.0404 30.6229 27.0845 25.9944 27.0845 7.29875V1.71729C27.0845 4.80297 25.7489 7.29875 21.5641 7.34412Z" fill="#0B4427"></path><path fill-rule="evenodd" clip-rule="evenodd" d="M14.0407 30.6228L14.0404 30.6227C14.0832 30.6074 27.0844 25.9634 27.0844 7.29858V1.71712C27.0844 4.80281 25.7488 7.29858 21.564 7.34396H11.0575V13.5153H21.564V15.3758C21.564 18.5069 20.7182 21.0027 16.0436 21.048H11.0575V29.1432C7.2195 26.7004 1.04102 20.7032 1.04102 7.40728V0H27.0847V7.40728C27.0403 26.0158 14.0407 30.6228 14.0407 30.6228Z" fill="url(#paint1_linear_1_843)"></path></g><defs><filter id="filter0_b_1_843" x="-295.059" y="-296.1" width="618.244" height="622.823" filterUnits="userSpaceOnUse" color-interpolation-filters="sRGB"><feGaussianBlur stdDeviation="148.05"></feGaussianBlur></filter><linearGradient id="paint0_linear_1_843" x1="29.5173" y1="8.72892" x2="-1.10544" y2="27.9039" gradientUnits="userSpaceOnUse"><stop stop-color="#F2F2F2"></stop><stop offset="1" stop-color="#F2F2F2" stop-opacity="0"></stop></linearGradient><linearGradient id="paint1_linear_1_843" x1="0.754587" y1="-0.715486" x2="22.0812" y2="15.0419" gradientUnits="userSpaceOnUse"><stop stop-color="#179974"></stop><stop offset="0.239884" stop-color="#14955E"></stop><stop offset="0.726527" stop-color="#0A861A"></stop><stop offset="1" stop-color="#08830A"></stop></linearGradient><clipPath id="clip0_1_843"><rect width="101" height="30.6223" fill="white"></rect></clipPath></defs></svg>