<svg width="400" height="120" viewBox="0 0 400 120" fill="none" xmlns="http://www.w3.org/2000/svg"><g clip-path="url(#clip0_3134_50158)"><path d="M51.8583 120C51.8583 120 0 104.602 0 29.0265V0H103.894V29.0265C103.894 101.947 51.8583 120 51.8583 120Z" fill="#51AF3D"/><path d="M132.742 58.0537V17.1689H157.875V20.1777C157.875 23.1865 155.397 25.6644 152.388 25.6644H142.831V34.337H155.397V37.1688C155.397 40.3546 152.919 42.8325 149.733 42.8325H143.008V58.0537H132.742Z" fill="black"/><path d="M173.45 35.7529H177.875C179.467 35.7529 180.706 35.3989 181.768 34.5139C182.653 33.629 183.184 32.3901 183.184 30.7972C183.184 28.4963 182.299 27.0803 180.706 26.3724C179.821 26.0184 178.583 25.8414 176.99 25.8414H173.627V35.7529H173.45ZM163.361 58.0537V17.1689H177.698C181.237 17.1689 183.892 17.5228 185.662 18.2308C187.963 19.1157 189.91 20.7087 191.149 22.6556C192.565 24.7795 193.096 27.2573 193.096 30.0892C193.096 32.3901 192.565 34.514 191.503 36.6379C190.441 38.7617 188.848 40.1777 186.901 41.2396V41.4166C187.255 41.9476 187.786 42.6555 188.494 43.8945L196.459 58.2307H185.308L178.052 44.4254H173.273V58.2307H163.361V58.0537Z" fill="black"/><path d="M201.062 58.0537V17.1689H226.726V25.6644H211.15V33.098H223.54V41.7706H211.15V49.5582H227.611V58.0537H201.062Z" fill="black"/><path d="M233.982 58.0537V17.1689H259.646V25.6644H244.07V33.098H256.46V41.7706H244.07V49.5582H260.354V58.0537H233.982Z" fill="black"/><path d="M276.813 49.5582H280.884C284.424 49.5582 287.079 48.4962 289.026 46.5493C290.973 44.4254 292.035 41.5936 292.035 37.6998C292.035 33.806 290.973 30.9741 289.026 28.8502C287.079 26.9033 284.247 25.8414 280.884 25.8414H276.813V49.5582ZM266.902 58.0537V17.1689H281.415C287.964 17.1689 293.096 18.9388 296.813 22.6556C300.53 26.1954 302.477 31.3281 302.477 37.6998C302.477 44.0715 300.53 49.2042 296.813 52.744C293.096 56.4608 287.787 58.2307 281.415 58.2307H266.902V58.0537Z" fill="black"/><path d="M317.167 37.3449C317.167 40.8847 318.229 43.7166 320.353 46.1944C322.477 48.4953 325.132 49.7343 328.317 49.7343C331.503 49.7343 334.158 48.4953 336.282 46.1944C338.406 43.8936 339.468 40.8847 339.468 37.3449C339.468 33.9821 338.406 31.1502 336.282 29.0263C334.158 26.7255 331.503 25.6635 328.317 25.6635C325.132 25.6635 322.477 26.7255 320.353 29.0263C318.229 31.1502 317.167 33.9821 317.167 37.3449ZM306.725 37.3449C306.725 31.3272 308.671 26.3715 312.742 22.4777C316.813 18.4069 321.946 16.46 328.14 16.46C334.335 16.46 339.468 18.4069 343.539 22.4777C347.609 26.5485 349.556 31.5042 349.556 37.3449C349.556 43.3626 347.609 48.4953 343.539 52.5661C339.468 56.6369 334.335 58.7608 328.14 58.7608C321.946 58.7608 316.813 56.6369 312.742 52.5661C308.848 48.4953 306.725 43.5396 306.725 37.3449Z" fill="black"/><path d="M354.336 58.0537L357.699 17.1689H368.495L374.513 34.5139L376.637 41.2396H376.814C377.522 38.4078 378.23 36.2839 378.938 34.5139L384.955 17.1689H395.752L399.115 58.0537H389.026L387.787 39.6467C387.787 38.7617 387.61 37.6998 387.61 36.6379C387.61 35.5759 387.61 34.514 387.61 33.806V32.744H387.433C386.548 35.5759 385.84 37.8768 385.132 39.6467L380.885 51.5051H372.212L367.964 39.6467L365.663 32.744H365.486C365.663 35.2219 365.663 37.5228 365.486 39.6467L364.247 58.0537H354.336Z" fill="black"/><path d="M81.9468 29.2037H40V53.2745H81.7699V60.5311C81.7699 72.7435 78.407 82.478 59.823 82.655H40V114.336C46.9026 118.584 51.8584 120 51.8584 120C51.8584 120 103.717 101.946 103.717 29.0267V7.25684C103.894 19.2922 98.407 29.0267 81.9468 29.2037Z" fill="#0F5431"/><path d="M132.92 99.2917V70.6191H143.54C146.549 70.6191 148.85 71.3271 150.62 72.566C152.389 73.805 153.274 75.7519 153.274 78.0528C153.274 79.2917 152.92 80.5306 152.389 81.5926C151.858 82.6545 150.973 83.5395 149.912 84.2474C151.504 84.7784 152.566 85.4864 153.274 86.7253C153.982 87.9642 154.336 89.2032 154.336 90.6191C154.336 93.451 153.274 95.7518 151.327 97.1678C149.204 98.5837 146.726 99.2917 143.54 99.2917H132.92ZM140 81.7696H143.54C144.425 81.7696 144.956 81.5926 145.487 81.0616C145.841 80.5306 146.195 79.9997 146.195 79.1147C146.195 78.4067 146.018 77.8758 145.487 77.3448C145.133 76.8138 144.425 76.6368 143.54 76.6368H140V81.7696ZM140 93.274H144.248C145.133 93.274 146.018 92.92 146.549 92.389C147.08 91.8581 147.434 91.1501 147.434 90.2651C147.434 89.3802 147.257 88.6722 146.726 88.1412C146.195 87.6103 145.487 87.2563 144.425 87.2563H140.177V93.274H140Z" fill="#070707"/><path d="M158.938 99.2917V70.6191H169.026C171.504 70.6191 173.451 70.7961 174.69 71.3271C176.283 72.0351 177.699 73.097 178.583 74.5129C179.468 75.9289 179.999 77.6988 179.999 79.8227C179.999 81.4156 179.646 83.0085 178.938 84.4244C178.229 85.8404 177.169 86.9023 175.753 87.6103C176.107 87.9642 176.46 88.4952 176.814 89.3802L182.477 99.4687H174.69L169.557 89.7342H166.195V99.4687H158.938V99.2917ZM166.018 83.5395H169.026C170.265 83.5395 171.151 83.1855 171.682 82.6545C172.39 82.1236 172.566 81.2386 172.566 79.9997C172.566 78.4067 172.035 77.3448 170.796 76.9908C170.265 76.6368 169.38 76.6368 168.141 76.6368H165.84V83.5395H166.018Z" fill="#070707"/><path d="M183.895 84.7791C183.895 80.5313 185.31 77.1685 188.142 74.3366C190.974 71.5048 194.514 70.0889 198.939 70.0889C203.364 70.0889 206.903 71.5048 209.735 74.3366C212.567 77.1685 213.983 80.7083 213.983 84.7791C213.983 89.0269 212.567 92.5667 209.735 95.5756C206.903 98.4074 203.364 99.8234 198.939 99.8234C194.514 99.8234 190.974 98.4074 188.142 95.5756C185.133 92.5667 183.895 89.0269 183.895 84.7791ZM191.151 84.7791C191.151 87.257 191.859 89.2039 193.275 90.9738C194.691 92.5667 196.638 93.4517 198.762 93.4517C201.063 93.4517 202.833 92.5667 204.249 90.9738C205.664 89.3809 206.372 87.257 206.372 84.7791C206.372 82.4782 205.664 80.5313 204.249 78.9384C202.833 77.3455 200.886 76.6375 198.762 76.6375C196.461 76.6375 194.691 77.3455 193.275 78.9384C191.859 80.3544 191.151 82.4782 191.151 84.7791Z" fill="#070707"/><path d="M218.23 99.2917V70.6191H225.31V81.7696H228.141L234.159 70.6191H241.77L233.982 84.4244L242.124 99.2917H234.336L228.318 87.6102H225.487V99.2917H218.23Z" fill="#070707"/><path d="M245.486 99.2917V70.6191H263.539V76.6368H252.565V81.9465H261.238V87.9643H252.565V93.451H264.07V99.4687H245.486V99.2917Z" fill="#070707"/><path d="M268.496 99.2917V70.6191H278.584C281.062 70.6191 283.009 70.7961 284.248 71.3271C285.841 72.0351 287.257 73.097 288.142 74.5129C289.027 75.9289 289.558 77.6988 289.558 79.8227C289.558 81.4156 289.204 83.0085 288.496 84.4244C287.788 85.8404 286.726 86.9023 285.31 87.6103C285.664 87.9642 286.018 88.4952 286.372 89.3802L292.035 99.4687H284.248L279.115 89.7342H275.752V99.4687H268.496V99.2917ZM275.575 83.5395H278.584C279.823 83.5395 280.708 83.1855 281.239 82.6545C281.947 82.1236 282.124 81.2386 282.124 79.9997C282.124 78.4067 281.593 77.3448 280.354 76.9908C279.823 76.6368 278.938 76.6368 277.699 76.6368H275.398V83.5395H275.575Z" fill="#070707"/></g><defs><clipPath id="clip0_3134_50158"><rect width="400" height="120" fill="white"/></clipPath></defs></svg>