<?xml version="1.0" encoding="UTF-8"?> <svg xmlns="http://www.w3.org/2000/svg" width="315" height="95" viewBox="0 0 315 95" fill="none"><path d="M40.9191 94.5059C40.9191 94.5059 0 82.4273 0 22.8143L0 0.000612731H81.8387V22.8143C81.8387 80.2948 40.9191 94.5059 40.9191 94.5059Z" fill="#4FAF3B"></path><path d="M104.571 45.7754V13.5207H124.33V15.8974C124.33 18.3223 122.364 20.2889 119.94 20.2889H112.466V27.0552H122.302V29.3471C122.302 31.8188 120.298 33.8215 117.826 33.8215H112.466V45.7754H104.571Z" fill="#090A0B"></path><path d="M128.796 45.7754V13.5207H140.029C142.886 13.5207 144.977 13.7764 146.3 14.2885C148.165 15.0063 149.623 16.1732 150.677 17.782C151.729 19.3927 152.253 21.3542 152.253 23.6712C152.253 25.4746 151.833 27.1965 150.992 28.8351C150.15 30.4759 148.961 31.6858 147.427 32.4685V32.5584C147.727 32.9489 148.133 33.5954 148.647 34.4981L154.916 45.7754H146.119L140.389 34.9016H136.692V45.7754H128.796ZM136.692 28.1353H140.12C141.412 28.1353 142.419 27.7915 143.143 27.0983C143.864 26.4083 144.224 25.431 144.224 24.1679C144.224 22.3912 143.592 21.2476 142.331 20.7374C141.638 20.4381 140.645 20.2889 139.352 20.2889H136.692V28.1353" fill="#090A0B"></path><path d="M158.479 45.7754V13.5207H178.69V20.2889H166.374V26.1512H176.209V32.9175H166.374V39.0091H179.322V45.7754H158.479" fill="#090A0B"></path><path d="M184.373 45.7754V13.5207H204.585V20.2889H192.268V26.1512H202.103V32.9175H192.268V39.0091H205.216V45.7754H184.373Z" fill="#090A0B"></path><path d="M210.267 45.7754V13.5207H221.726C226.836 13.5207 230.889 14.94 233.882 17.782C236.876 20.6263 238.373 24.5585 238.373 29.5816C238.373 34.6325 236.876 38.5948 233.882 41.4669C230.889 44.3394 226.836 45.7754 221.726 45.7754H210.267ZM218.162 39.0091H221.409C224.176 39.0091 226.335 38.1978 227.881 36.574C229.433 34.9499 230.205 32.6181 230.205 29.5816C230.205 26.5732 229.425 24.2726 227.862 22.6785C226.297 21.0831 224.146 20.2889 221.409 20.2889H218.162V39.0091" fill="#090A0B"></path><path d="M241.757 29.4421C241.757 24.7485 243.337 20.8343 246.494 17.6879C249.651 14.5466 253.695 12.9739 258.63 12.9739C263.562 12.9739 267.605 14.5466 270.765 17.6879C273.924 20.8343 275.5 24.7485 275.5 29.4421C275.5 34.2525 273.924 38.2682 270.765 41.4873C267.605 44.7055 263.562 46.3125 258.63 46.3125C253.695 46.3125 249.651 44.7055 246.494 41.4873C243.337 38.2682 241.757 34.2525 241.757 29.4421V29.4421ZM249.921 29.4421C249.921 32.2099 250.74 34.5082 252.379 36.3452C254.018 38.1764 256.103 39.0958 258.63 39.0958C261.155 39.0958 263.238 38.1764 264.876 36.3452C266.515 34.5082 267.335 32.2099 267.335 29.4421C267.335 26.7962 266.515 24.5905 264.876 22.8306C263.238 21.072 261.155 20.1943 258.63 20.1943C256.103 20.1943 254.018 21.072 252.379 22.8306C250.74 24.5905 249.921 26.7962 249.921 29.4421Z" fill="#090A0B"></path><path d="M279.248 45.7754L281.91 13.5207H290.483L295.174 27.1432L296.798 32.4685H296.889C297.49 30.3031 298.03 28.5259 298.513 27.1432L303.202 13.5207H311.775L314.392 45.7754H306.499L305.505 31.2484C305.443 30.5273 305.415 29.716 305.415 28.8137C305.415 27.9092 305.429 27.1896 305.459 26.6461L305.505 25.8369H305.415C304.692 28.0922 304.091 29.8957 303.612 31.2484L300.227 40.5879H293.461L290.077 31.2484L288.271 25.8369H288.181C288.3 27.8212 288.3 29.6247 288.181 31.2484L287.19 45.7754H279.248" fill="#090A0B"></path><path d="M64.5378 22.9956H31.582L31.582 41.9386H64.5429V47.6064C64.5429 57.1965 61.8373 64.9355 47.2555 64.9703H31.582V89.9818C36.9939 93.3474 40.9146 94.5059 40.9146 94.5059C40.9146 94.5059 81.8337 80.2967 81.8337 22.8143V5.62324C81.8337 15.2171 77.5937 22.8194 64.5378 22.9956Z" fill="#03532F"></path><path d="M110.329 66.5019H113.051C113.978 66.5019 114.69 66.2174 115.186 65.6469C115.682 65.0779 115.93 64.3301 115.93 63.4013C115.93 62.4727 115.688 61.7346 115.202 61.186C114.716 60.6369 114.031 60.363 113.146 60.363H110.329V66.5019ZM104.792 78.2422V55.6161H114.189C116.383 55.6161 118.162 56.3445 119.522 57.8005C120.883 59.2559 121.563 61.1229 121.563 63.4013C121.563 65.7002 120.883 67.5834 119.522 69.0501C118.162 70.5152 116.383 71.2493 114.189 71.2493H110.329V78.2422H104.792" fill="#090A0B"></path><path d="M130.582 69.0649H135.043L133.778 64.6664L132.86 60.7745H132.797C132.46 62.4195 132.153 63.7174 131.88 64.6664L130.582 69.0649ZM122.228 78.2422L129.917 55.6161H135.74L143.43 78.2422H137.734L136.34 73.4948H129.285L127.924 78.2422H122.228" fill="#090A0B"></path><path d="M150.481 78.2422V68.9699L143.014 55.6161H149.31L151.874 61.0589L153.233 64.3194H153.297C153.72 63.1794 154.172 62.0928 154.658 61.0589L157.19 55.6161H163.486L156.019 68.9699V78.2422H150.481" fill="#090A0B"></path></svg> 