<?xml version="1.0" encoding="UTF-8"?>
<svg id="Layer_1" xmlns="http://www.w3.org/2000/svg" version="1.1" viewBox="0 0 117 36">
  <!-- Generator: Adobe Illustrator 29.5.1, SVG Export Plug-In . SVG Version: 2.1.0 Build 141)  -->
  <defs>
    <style>
      .st0 {
        fill: #51af3d;
      }

      .st1 {
        fill: #0f5431;
      }
    </style>
  </defs>
  <path class="st0" d="M15.2,35.7S0,31.2,0,8.9V.3h30.5v8.6c0,21.5-15.3,26.9-15.3,26.9Z"/>
  <path class="st1" d="M24,8.9h-12.3v7.1h12.3v2.1c0,3.6-1,6.5-6.4,6.5h-5.8v9.4c2,1.3,3.5,1.7,3.5,1.7,0,0,15.2-5.3,15.2-26.9V2.4c0,3.6-1.6,6.4-6.4,6.5Z"/>
  <path d="M38.2,18.6V6.6h7.4v.9c0,.9-.7,1.6-1.6,1.6h-2.8v2.6h3.7v.8c0,.9-.7,1.7-1.7,1.7h-2v4.5h-3Z"/>
  <path d="M50.2,12.1h1.3c.5,0,.8-.1,1.1-.4.3-.3.4-.6.4-1.1,0-.7-.3-1.1-.7-1.3-.3-.1-.6-.2-1.1-.2h-1v2.9h0ZM47.3,18.6V6.6h4.2c1,0,1.8.1,2.3.3.7.3,1.2.7,1.6,1.3.4.6.6,1.4.6,2.2s-.2,1.3-.5,1.9c-.3.6-.8,1-1.4,1.4h0c.1.2.3.4.5.8l2.3,4.2h-3.3l-2.1-4.1h-1.4v4.1h-2.9Z"/>
  <path d="M58.3,18.6V6.6h7.5v2.6h-4.6v2.2h3.7v2.5h-3.7v2.3h4.8v2.5h-7.7Z"/>
  <path d="M68,18.6V6.6h7.5v2.6h-4.6v2.2h3.7v2.5h-3.7v2.3h4.8v2.5h-7.8Z"/>
  <path d="M80.6,16.1h1.2c1,0,1.8-.3,2.4-.9.6-.6.9-1.5.9-2.6s-.3-2-.9-2.6c-.6-.6-1.4-.9-2.4-.9h-1.2v7ZM77.6,18.6V6.6h4.3c1.9,0,3.4.5,4.5,1.6,1.1,1,1.7,2.6,1.7,4.4s-.6,3.4-1.7,4.4c-1.1,1.1-2.6,1.6-4.5,1.6h-4.3Z"/>
  <path d="M92.4,12.5c0,1,.3,1.9.9,2.6.6.7,1.4,1,2.3,1s1.7-.4,2.3-1c.6-.7.9-1.6.9-2.6s-.3-1.8-.9-2.5c-.6-.7-1.4-1-2.3-1s-1.7.3-2.3,1c-.6.7-.9,1.5-.9,2.5ZM89.4,12.5c0-1.8.6-3.2,1.8-4.4,1.2-1.2,2.7-1.8,4.5-1.8s3.3.6,4.5,1.8c1.2,1.2,1.8,2.7,1.8,4.4s-.6,3.3-1.8,4.5c-1.2,1.2-2.7,1.8-4.5,1.8s-3.3-.6-4.5-1.8c-1.2-1.2-1.8-2.7-1.8-4.5Z"/>
  <path d="M103.3,18.6l1-12.1h3.2l1.8,5.1.6,2h0c.2-.8.4-1.5.6-2l1.8-5.1h3.2l1,12.1h-3l-.4-5.4c0-.3,0-.6,0-.9v-1.2h0c-.3.8-.5,1.5-.7,2l-1.2,3.5h-2.5l-1.2-3.5-.7-2h0c0,.7,0,1.4,0,2l-.4,5.4h-2.9Z"/>
  <path d="M38.4,22.7h2.1v8.6h-2.1v-8.6Z"/>
  <path d="M42.3,22.7h2.1l2.4,4c.3.6.7,1.5.7,1.5,0,0-.1-.9-.1-1.5v-4h2.1v8.6h-2.1l-2.4-4c-.3-.6-.7-1.5-.7-1.5,0,0,.1.9.1,1.5v4h-2.1v-8.6Z"/>
  <path d="M51.9,28.7c.5.4,1.3.9,2.1.9s.9-.3.9-.6c0-1.2-3.8-1-3.8-3.7s1.3-2.6,3.1-2.6,1.9.3,2.7,1l-.9,1.7c-.5-.4-1.2-.8-1.9-.8s-.9.3-.9.6c0,1.3,3.8.9,3.8,3.7s-1.1,2.7-3.1,2.7-2.3-.4-3.1-1.3l1.1-1.6Z"/>
  <path d="M58.2,22.7h2.1v5.4c0,.9.6,1.4,1.5,1.4s1.5-.5,1.5-1.4v-5.4h2.1v5.4c0,1.9-1.4,3.3-3.6,3.3s-3.6-1.4-3.6-3.3v-5.4Z"/>
  <path d="M67.1,22.7h3c.9,0,1.3,0,1.7.2,1,.4,1.6,1.3,1.6,2.5s-.4,1.9-1.3,2.4c0,0,.1.2.3.5l1.7,3h-2.3l-1.5-2.9h-1v2.9h-2.1v-8.6h0ZM70.1,26.6c.7,0,1.1-.4,1.1-1s-.1-.8-.5-.9c-.2-.1-.5-.1-.8-.1h-.7v2.1h.9Z"/>
  <path d="M76.9,22.7h2.2l2.9,8.6h-2.2l-.5-1.8h-2.6l-.5,1.8h-2.2l3-8.6ZM78.9,27.8l-.5-1.7c-.2-.5-.4-1.5-.4-1.5,0,0-.2.9-.4,1.5l-.5,1.7h1.7Z"/>
  <path d="M82.9,22.7h2.1l2.4,4c.3.6.7,1.5.7,1.5,0,0-.1-.9-.1-1.5v-4h2.1v8.6h-2.1l-2.4-4c-.3-.6-.7-1.5-.7-1.5,0,0,.1.9.1,1.5v4h-2.1v-8.6Z"/>
  <path d="M96,22.6c1.1,0,2.4.4,3.2,1.2l-1,1.6c-.6-.5-1.4-.9-2.1-.9-1.7,0-2.4,1.2-2.4,2.5s.8,2.6,2.4,2.6,1.7-.5,2.3-1l1.1,1.6c-.8.8-1.9,1.5-3.4,1.5-2.8,0-4.5-1.9-4.5-4.5,0-2.6,1.8-4.4,4.4-4.4Z"/>
  <path d="M100.5,22.7h5.4v1.8h-3.3v1.6h2.6v1.8h-2.6v1.6h3.4v1.8h-5.6v-8.7h0Z"/>
</svg>